{"glyphs":{"S":{"x_min":39.875,"x_max":888.9375,"ha":951,"o":"m 39 48 l 84 279 l 162 279 q 196 108 143 163 q 378 53 248 53 q 571 100 498 53 q 662 240 644 148 q 645 352 676 313 q 498 429 614 392 l 373 469 q 190 579 236 513 q 166 759 143 645 q 296 959 191 888 q 567 1031 402 1031 q 719 1015 638 1031 q 888 970 800 1000 l 847 756 l 775 756 q 725 910 775 862 q 553 958 675 958 q 383 914 447 958 q 303 787 319 870 q 323 673 289 715 q 486 591 357 632 l 604 554 q 779 448 733 513 q 804 276 825 384 q 667 54 776 129 q 372 -20 558 -20 q 205 -2 288 -20 q 39 48 122 14 "},"â±«":{"x_min":-15.28125,"x_max":1005.359375,"ha":965,"o":"m -15 0 l -5 48 l 795 930 l 272 930 l 243 778 l 159 778 l 205 1013 l 1005 1013 l 995 964 l 194 83 l 849 83 l 791 -217 l 728 -217 q 728 -107 728 -215 q 669 0 728 0 l -15 0 "},"Â¦":{"x_min":179,"x_max":289,"ha":468,"o":"m 289 277 l 289 -237 l 179 -237 l 179 277 l 289 277 m 289 972 l 289 458 l 179 458 l 179 972 l 289 972 "},"/":{"x_min":-110.546875,"x_max":579.828125,"ha":468,"o":"m 471 1013 l 579 1013 l -2 -129 l -110 -129 l 471 1013 "},"y":{"x_min":-51.53125,"x_max":798.90625,"ha":785,"o":"m 798 715 q 613 121 731 326 q 301 -268 440 -178 q 77 -309 240 -309 q 13 -303 45 -309 q -51 -287 -18 -298 l -24 -150 l 39 -150 q 38 -171 38 -160 q 50 -215 38 -199 q 111 -239 67 -239 q 334 -135 230 -239 l 164 648 l 82 648 l 96 721 l 282 721 l 442 5 q 578 235 552 168 q 680 642 663 446 l 598 642 l 613 715 l 798 715 "},"â±¨":{"x_min":67.53125,"x_max":880.84375,"ha":894,"o":"m 665 120 q 664 106 664 113 q 704 72 664 72 q 759 92 744 72 q 798 161 775 112 l 880 161 q 860 86 871 120 q 849 24 849 52 q 859 -33 849 -3 q 870 -99 870 -62 q 851 -167 870 -135 q 763 -231 832 -199 q 623 -281 695 -262 l 577 -193 q 708 -140 653 -172 q 763 -81 763 -107 q 743 -5 763 -55 q 653 -20 704 -20 q 547 116 547 -20 q 555 195 547 153 l 598 419 q 612 536 612 489 q 601 600 612 577 q 496 649 578 649 q 351 585 409 649 q 270 401 293 522 l 192 0 l 67 0 l 258 984 l 139 984 l 152 1056 l 397 1056 l 307 593 q 418 703 356 666 q 554 741 481 741 q 716 672 673 741 q 743 561 743 631 q 731 458 743 516 l 665 120 "},"Ã�":{"x_min":-105.796875,"x_max":932.484375,"ha":1003,"o":"m 251 367 l 623 367 l 531 848 l 251 367 m -105 0 l -92 72 l -3 72 l 540 1013 l 654 1013 l 833 72 l 932 72 l 918 0 l 550 0 l 564 72 l 676 72 l 635 294 l 209 294 l 81 72 l 192 72 l 179 0 l -105 0 m 713 1288 l 847 1288 l 634 1109 l 554 1109 l 713 1288 "},"g":{"x_min":48.96875,"x_max":830.03125,"ha":890,"o":"m 830 721 l 692 15 q 560 -224 661 -146 q 300 -309 451 -309 q 166 -296 228 -309 q 48 -257 103 -283 l 78 -106 l 143 -106 q 182 -209 143 -176 q 306 -241 221 -241 q 478 -179 415 -241 q 567 15 541 -118 l 586 112 q 473 12 537 44 q 329 -20 409 -20 q 148 60 209 -20 q 110 182 110 111 q 119 272 110 223 q 331 636 166 512 q 637 741 472 741 q 830 721 788 741 m 691 648 q 617 672 691 672 q 385 570 485 672 q 249 281 286 467 q 242 185 242 226 q 259 114 242 142 q 379 58 292 58 q 538 126 475 58 q 626 324 601 194 l 640 396 l 691 648 "},"Â²":{"x_min":4.75,"x_max":491.890625,"ha":557,"o":"m 141 879 l 94 879 l 115 986 q 213 1019 164 1008 q 310 1031 263 1031 q 453 986 404 1031 q 488 870 502 941 q 318 670 472 788 l 303 658 l 113 513 l 374 513 l 388 586 l 438 586 l 413 453 l 4 453 l 14 504 l 241 676 q 343 769 309 728 q 385 856 376 811 q 369 947 396 913 q 286 981 343 981 q 196 955 233 981 q 141 879 160 929 "},"Ã«":{"x_min":59,"x_max":759,"ha":821,"o":"m 203 278 q 201 228 201 251 q 224 122 201 164 q 370 47 263 47 q 488 71 449 47 q 573 169 557 113 l 664 169 q 536 22 637 82 q 326 -20 466 -20 q 111 83 187 -20 q 59 261 59 156 q 69 360 59 307 q 216 636 102 531 q 494 741 331 741 q 759 552 759 741 q 620 346 759 414 q 203 278 478 278 m 551 424 q 627 555 627 469 q 473 673 627 673 q 319 605 382 673 q 217 353 256 537 q 551 424 435 353 m 425 1064 q 477 1040 458 1064 q 489 984 495 1017 q 456 927 482 949 q 394 905 429 905 q 343 927 360 905 q 331 984 324 949 q 366 1040 337 1017 q 425 1064 394 1064 m 690 1064 q 740 1040 721 1064 q 753 984 759 1017 q 719 927 746 949 q 658 905 692 905 q 606 927 624 905 q 595 984 588 949 q 629 1040 601 1017 q 690 1064 657 1064 "},"ÃŽ":{"x_min":-21.015625,"x_max":625.953125,"ha":549,"o":"m 259 72 l 387 72 l 374 0 l -21 0 l -7 72 l 121 72 l 290 940 l 161 940 l 175 1013 l 571 1013 l 556 940 l 427 940 l 259 72 m 385 1288 l 504 1288 l 625 1109 l 547 1109 l 431 1218 l 271 1109 l 193 1109 l 385 1288 "},"e":{"x_min":59,"x_max":759,"ha":821,"o":"m 203 278 q 201 228 201 251 q 224 122 201 164 q 370 47 263 47 q 488 71 449 47 q 573 169 557 113 l 664 169 q 536 22 637 82 q 326 -20 466 -20 q 111 83 187 -20 q 59 261 59 156 q 69 360 59 307 q 216 636 102 531 q 494 741 331 741 q 759 552 759 741 q 620 346 759 414 q 203 278 478 278 m 551 424 q 627 555 627 469 q 473 673 627 673 q 319 605 382 673 q 217 353 256 537 q 551 424 435 353 "},"Ãƒ":{"x_min":-105.796875,"x_max":932.484375,"ha":1003,"o":"m 251 367 l 623 367 l 531 848 l 251 367 m -105 0 l -92 72 l -3 72 l 540 1013 l 654 1013 l 833 72 l 932 72 l 918 0 l 550 0 l 564 72 l 676 72 l 635 294 l 209 294 l 81 72 l 192 72 l 179 0 l -105 0 m 619 1163 l 590 1182 q 566 1196 579 1191 q 541 1201 553 1201 q 493 1181 515 1201 q 463 1131 472 1162 l 398 1131 q 455 1239 413 1199 q 555 1280 497 1280 q 600 1273 579 1280 q 653 1246 619 1267 l 682 1228 q 710 1214 696 1219 q 735 1210 724 1210 q 783 1228 763 1210 q 809 1280 802 1247 l 874 1280 q 817 1169 859 1208 q 711 1131 775 1131 q 622 1161 665 1131 l 619 1163 "},"J":{"x_min":-233.296875,"x_max":620.53125,"ha":557,"o":"m -233 -242 l -202 -83 l -125 -83 q -112 -183 -136 -150 q -29 -216 -89 -216 q 92 -165 50 -216 q 163 33 134 -114 l 339 940 l 182 940 l 196 1013 l 620 1013 l 606 940 l 477 940 l 299 28 q 185 -214 267 -139 q -45 -289 103 -289 q -141 -277 -93 -289 q -233 -242 -188 -265 "},"Â»":{"x_min":70.53125,"x_max":748.703125,"ha":850,"o":"m 485 718 l 748 434 l 737 379 l 364 95 l 379 173 l 626 407 l 470 640 l 485 718 m 191 718 l 454 434 l 443 379 l 70 95 l 85 173 l 331 407 l 176 640 l 191 718 "},"Â©":{"x_min":192,"x_max":1197,"ha":1389,"o":"m 933 389 q 854 251 915 299 q 696 204 792 204 q 493 285 569 204 q 418 502 418 366 q 494 720 418 638 q 696 803 570 803 q 803 790 750 803 q 914 751 855 777 l 914 607 l 857 607 q 807 715 846 680 q 697 750 768 750 q 576 687 617 750 q 535 502 535 625 q 575 318 535 379 q 696 257 616 257 q 800 289 762 257 q 853 389 838 321 l 933 389 m 502 970 q 694 1008 591 1008 q 886 970 797 1008 q 1049 859 975 933 q 1160 696 1123 785 q 1197 502 1197 607 q 1160 311 1197 399 q 1049 148 1123 222 q 886 37 975 74 q 694 0 797 0 q 502 37 591 0 q 339 148 413 74 q 228 311 265 222 q 192 502 192 399 q 228 696 192 607 q 339 859 265 785 q 502 970 413 933 m 694 938 q 528 906 605 938 q 388 810 452 874 q 293 669 325 747 q 261 502 261 591 q 293 337 261 414 q 388 197 325 261 q 528 101 452 133 q 694 69 605 69 q 861 101 784 69 q 1001 197 938 133 q 1096 337 1064 260 q 1128 502 1128 413 q 1096 670 1128 593 q 1001 810 1064 747 q 861 906 938 874 q 694 938 784 938 "},"Ã²":{"x_min":59,"x_max":776.421875,"ha":836,"o":"m 356 47 q 523 126 457 47 q 620 360 590 206 q 634 486 634 431 q 615 594 634 551 q 478 673 579 673 q 311 594 378 673 q 214 360 244 515 q 201 235 201 290 q 221 126 201 170 q 356 47 257 47 m 343 -20 q 111 83 186 -20 q 59 261 59 156 q 69 360 59 307 q 218 637 102 533 q 491 741 333 741 q 724 637 649 741 q 776 460 776 565 q 766 360 776 413 q 617 84 733 188 q 343 -20 501 -20 m 452 1110 l 579 855 l 499 855 l 319 1110 l 452 1110 "},"^":{"x_min":147.15625,"x_max":1016.578125,"ha":1164,"o":"m 648 1013 l 1016 635 l 912 635 l 581 893 l 251 635 l 147 635 l 515 1013 l 648 1013 "},"Â«":{"x_min":101.71875,"x_max":779.890625,"ha":850,"o":"m 779 718 l 764 640 l 518 407 l 674 173 l 659 95 l 396 379 l 406 434 l 779 718 m 485 718 l 470 640 l 223 407 l 379 173 l 364 95 l 101 379 l 112 434 l 485 718 "},"D":{"x_min":-21.015625,"x_max":1047.296875,"ha":1114,"o":"m 259 72 l 385 72 q 710 184 582 72 q 878 507 837 297 q 835 828 919 717 q 554 940 752 940 l 427 940 l 259 72 m -21 0 l -7 72 l 121 72 l 290 940 l 161 940 l 175 1013 l 578 1013 q 960 879 840 1013 q 1034 507 1081 745 q 815 134 988 268 q 381 0 642 0 l -21 0 "},"Ã¿":{"x_min":-51.53125,"x_max":798.90625,"ha":785,"o":"m 798 715 q 613 121 731 326 q 301 -268 440 -178 q 77 -309 240 -309 q 13 -303 45 -309 q -51 -287 -18 -298 l -24 -150 l 39 -150 q 38 -171 38 -160 q 50 -215 38 -199 q 111 -239 67 -239 q 334 -135 230 -239 l 164 648 l 82 648 l 96 721 l 282 721 l 442 5 q 578 235 552 168 q 680 642 663 446 l 598 642 l 613 715 l 798 715 m 408 1065 q 459 1041 440 1065 q 472 985 478 1018 q 438 928 465 950 q 377 906 411 906 q 325 928 343 906 q 314 985 307 950 q 348 1041 320 1018 q 408 1065 376 1065 m 672 1065 q 723 1041 704 1065 q 735 985 741 1018 q 702 928 729 950 q 641 906 675 906 q 589 928 606 906 q 577 985 571 950 q 612 1041 583 1018 q 672 1065 640 1065 "},"Ã­":{"x_min":99.6875,"x_max":592.046875,"ha":444,"o":"m 238 72 l 356 72 l 342 0 l 99 0 l 225 649 l 106 649 l 120 722 l 364 722 l 238 72 m 457 1112 l 592 1112 l 311 856 l 231 856 l 457 1112 "},"w":{"x_min":77.984375,"x_max":1160.34375,"ha":1189,"o":"m 811 158 q 922 291 901 255 q 1070 648 996 427 l 965 648 l 979 721 l 1160 721 l 1146 648 l 1145 648 q 1010 274 1076 396 q 807 0 913 101 l 703 0 l 629 539 l 346 0 l 246 0 l 159 648 l 77 648 l 92 721 l 278 721 l 354 158 l 649 721 l 736 721 l 811 158 "},"$":{"x_min":46.109375,"x_max":797.53125,"ha":884,"o":"m 394 46 q 519 90 472 53 q 579 192 567 128 q 559 291 591 250 q 453 353 526 332 l 394 46 m 474 803 q 357 767 402 803 q 300 671 311 731 q 318 580 289 616 q 418 521 347 544 l 474 803 m 46 49 l 82 237 l 155 237 q 182 95 140 143 q 326 47 225 47 l 390 375 q 190 476 242 419 q 156 627 138 533 q 265 803 177 737 q 486 870 352 870 l 522 1056 l 590 1056 l 554 872 q 682 854 622 872 q 797 807 742 837 l 762 630 l 689 630 q 658 756 696 709 q 541 803 620 803 l 482 499 q 695 394 640 453 q 731 235 750 334 q 618 52 710 121 q 381 -16 526 -16 l 345 -203 l 278 -203 l 313 -20 q 181 -2 248 -20 q 46 49 115 14 "},"\\":{"x_min":111.21875,"x_max":356.71875,"ha":468,"o":"m 219 1013 l 356 -129 l 248 -129 l 111 1013 l 219 1013 "},"ÃŒ":{"x_min":-21.015625,"x_max":571.015625,"ha":549,"o":"m 259 72 l 387 72 l 374 0 l -21 0 l -7 72 l 121 72 l 290 940 l 161 940 l 175 1013 l 571 1013 l 556 940 l 427 940 l 259 72 m 386 1289 l 475 1109 l 396 1109 l 253 1289 l 386 1289 "},"Âµ":{"x_min":61.5,"x_max":832.578125,"ha":903,"o":"m 707 720 l 832 720 l 705 70 l 823 70 l 810 -1 l 567 -1 l 592 127 q 485 17 543 54 q 367 -20 428 -20 q 299 -8 328 -20 q 247 28 269 3 l 186 -289 l 61 -289 l 243 648 l 131 648 l 145 721 l 382 721 l 300 301 q 288 185 288 231 q 298 120 288 143 q 403 72 321 72 q 548 135 490 72 q 629 320 606 199 l 707 720 "},"Ã‡":{"x_min":64.421875,"x_max":1036.078125,"ha":1063,"o":"m 932 268 q 740 53 860 126 q 459 -20 621 -20 q 282 13 360 -20 q 151 113 204 47 q 72 286 90 189 q 77 505 54 383 q 288 887 123 742 q 675 1032 452 1032 q 847 1010 758 1032 q 1036 944 937 988 l 991 711 l 914 711 q 850 898 914 838 q 650 959 786 959 q 382 843 488 959 q 233 505 276 728 q 250 167 189 283 q 473 52 311 52 q 670 106 587 52 q 808 268 754 160 l 932 268 m 500 0 q 549 -81 535 -43 q 557 -152 563 -119 q 497 -237 546 -207 q 373 -268 449 -268 q 315 -263 345 -268 q 256 -251 286 -259 l 274 -162 q 325 -180 299 -174 q 374 -186 351 -186 q 439 -168 413 -186 q 471 -119 465 -150 q 466 -70 475 -100 q 434 0 456 -41 l 500 0 "},"-":{"x_min":50.859375,"x_max":418.4375,"ha":469,"o":"m 71 426 l 418 426 l 398 320 l 50 320 l 71 426 "},"Q":{"x_min":84,"x_max":1095,"ha":1139,"o":"m 503 -20 q 160 123 270 -20 q 84 371 84 222 q 97 505 84 433 q 177 724 121 627 q 323 897 233 821 q 495 997 402 963 q 691 1031 587 1031 q 1019 886 912 1031 q 1095 638 1095 785 q 1081 505 1095 576 q 913 167 1042 304 q 598 -8 785 31 q 674 -75 626 -53 q 797 -97 723 -97 l 966 -97 l 942 -223 l 862 -223 q 608 -167 683 -223 q 503 -20 535 -111 m 501 53 q 774 167 667 53 q 925 505 881 281 q 943 671 943 597 q 906 843 943 776 q 677 958 843 958 q 403 843 510 958 q 252 505 296 729 q 235 339 235 413 q 271 166 235 234 q 501 53 334 53 "},"M":{"x_min":-21.015625,"x_max":1450.609375,"ha":1422,"o":"m -21 0 l -7 72 l 121 72 l 290 940 l 153 940 l 168 1013 l 463 1013 l 678 292 l 1173 1013 l 1450 1013 l 1436 940 l 1301 940 l 1133 72 l 1262 72 l 1248 0 l 852 0 l 866 72 l 994 72 l 1147 854 l 662 149 l 566 149 l 357 854 l 204 72 l 333 72 l 320 0 l -21 0 "},"C":{"x_min":64.421875,"x_max":1036.078125,"ha":1063,"o":"m 932 268 q 740 53 860 126 q 459 -20 621 -20 q 282 13 360 -20 q 151 113 204 47 q 72 286 90 189 q 77 505 54 383 q 288 886 123 741 q 675 1031 452 1031 q 847 1009 758 1031 q 1036 943 937 987 l 991 710 l 914 710 q 850 897 914 837 q 650 958 786 958 q 382 843 488 958 q 233 505 276 728 q 250 167 189 282 q 473 53 311 53 q 670 106 587 53 q 808 268 754 160 l 932 268 "},"!":{"x_min":99.015625,"x_max":467.265625,"ha":558,"o":"m 119 6 q 106 70 99 32 q 144 134 113 108 q 214 161 175 161 q 272 134 251 161 q 286 70 294 108 q 247 6 279 32 q 179 -20 216 -20 q 119 6 140 -20 m 292 1013 l 467 1013 l 312 455 l 279 285 l 195 285 l 229 455 l 292 1013 "},"Ã§":{"x_min":59,"x_max":751.828125,"ha":778,"o":"m 686 217 q 550 40 637 101 q 344 -20 463 -20 q 111 83 186 -20 q 59 261 59 156 q 69 360 59 307 q 218 637 103 533 q 491 741 334 741 q 625 725 560 741 q 751 676 690 709 l 716 492 l 644 492 q 644 509 644 501 q 608 630 644 591 q 480 673 569 673 q 312 595 379 673 q 215 361 245 517 q 201 234 201 289 q 220 126 201 168 q 358 47 256 47 q 495 89 439 47 q 586 217 551 131 l 686 217 m 377 0 q 426 -81 412 -43 q 434 -152 440 -119 q 374 -237 423 -207 q 250 -268 326 -268 q 192 -263 221 -268 q 133 -251 163 -259 l 151 -162 q 202 -180 176 -174 q 251 -186 227 -186 q 316 -168 290 -186 q 348 -119 341 -150 q 342 -70 352 -100 q 311 0 333 -41 l 377 0 "},"Ãˆ":{"x_min":-21.015625,"x_max":990.8125,"ha":1014,"o":"m -21 0 l -7 72 l 121 72 l 290 940 l 161 940 l 175 1013 l 990 1013 l 947 787 l 863 787 l 891 929 l 425 929 l 360 590 l 691 590 l 716 716 l 799 716 l 734 380 l 651 380 l 675 507 l 343 507 l 261 83 l 737 83 l 764 225 l 848 225 l 804 0 l -21 0 m 642 1289 l 731 1109 l 651 1109 l 509 1289 l 642 1289 "},"{":{"x_min":166.828125,"x_max":834.828125,"ha":884,"o":"m 599 -156 l 585 -227 l 543 -227 q 326 -176 374 -227 q 308 23 279 -126 l 342 198 q 333 339 362 300 q 208 379 304 379 l 166 379 l 180 450 l 221 450 q 362 489 318 450 q 426 630 406 528 l 460 805 q 556 1005 489 955 q 792 1056 623 1056 l 834 1056 l 820 985 l 774 985 q 643 955 678 985 q 590 829 609 925 l 552 634 q 488 481 531 527 q 354 414 446 435 q 463 346 439 391 q 467 194 488 300 l 429 0 q 434 -126 410 -96 q 553 -156 457 -156 l 599 -156 "},"X":{"x_min":-89.515625,"x_max":1034.890625,"ha":989,"o":"m 446 433 l 128 72 l 259 72 l 245 0 l -89 0 l -75 72 l 40 72 l 415 497 l 205 940 l 96 940 l 111 1013 l 512 1013 l 498 940 l 379 940 l 533 614 l 819 940 l 689 940 l 703 1013 l 1034 1013 l 1020 940 l 906 940 l 563 550 l 790 72 l 898 72 l 884 0 l 482 0 l 496 72 l 617 72 l 446 433 "},"Ã´":{"x_min":59,"x_max":776.421875,"ha":836,"o":"m 356 47 q 523 126 457 47 q 620 360 590 206 q 634 486 634 431 q 615 594 634 551 q 478 673 579 673 q 311 594 378 673 q 214 360 244 515 q 201 235 201 290 q 221 126 201 170 q 356 47 257 47 m 343 -20 q 111 83 186 -20 q 59 261 59 156 q 69 360 59 307 q 218 637 102 533 q 491 741 333 741 q 724 637 649 741 q 776 460 776 565 q 766 360 776 413 q 617 84 733 188 q 343 -20 501 -20 m 516 1111 l 629 1111 l 739 856 l 660 856 l 557 1032 l 385 856 l 306 856 l 516 1111 "},"Â¼":{"x_min":64.421875,"x_max":1199.6875,"ha":1346,"o":"m 991 206 l 1045 481 l 782 206 l 991 206 m 1146 0 l 852 0 l 863 57 l 962 57 l 980 150 l 710 150 l 721 207 l 1062 567 l 1158 567 l 1088 206 l 1199 206 l 1188 150 l 1077 150 l 1059 57 l 1157 57 l 1146 0 m 64 453 l 75 510 l 191 510 l 275 940 l 125 868 l 137 932 l 317 1019 l 386 1019 l 287 510 l 404 510 l 394 453 l 64 453 m 1043 1031 l 1145 1031 l 301 -20 l 200 -20 l 1043 1031 "},"#":{"x_min":107,"x_max":1057,"ha":1163,"o":"m 706 611 l 515 611 l 458 385 l 651 385 l 706 611 m 610 997 l 541 716 l 732 716 l 802 997 l 919 997 l 848 716 l 1057 716 l 1057 611 l 821 611 l 766 385 l 979 385 l 979 281 l 740 281 l 670 0 l 553 0 l 624 281 l 432 281 l 362 0 l 247 0 l 316 281 l 107 281 l 107 385 l 342 385 l 398 611 l 184 611 l 184 716 l 424 716 l 495 997 l 610 997 "},"â±©":{"x_min":-0.859375,"x_max":1124.890625,"ha":1038,"o":"m 0 0 l 13 72 l 142 72 l 311 940 l 182 940 l 195 1013 l 591 1013 l 577 940 l 448 940 l 374 557 l 884 940 l 774 940 l 788 1013 l 1124 1013 l 1111 940 l 997 940 l 488 558 l 880 72 l 995 72 l 939 -218 l 876 -218 q 876 -107 876 -215 q 817 0 876 0 l 745 0 l 359 481 l 279 72 l 408 72 l 394 0 l 0 0 "},"ÃŠ":{"x_min":-21.015625,"x_max":990.8125,"ha":1014,"o":"m -21 0 l -7 72 l 121 72 l 290 940 l 161 940 l 175 1013 l 990 1013 l 947 787 l 863 787 l 891 929 l 425 929 l 360 590 l 691 590 l 716 716 l 799 716 l 734 380 l 651 380 l 675 507 l 343 507 l 261 83 l 737 83 l 764 225 l 848 225 l 804 0 l -21 0 m 616 1289 l 735 1289 l 857 1109 l 778 1109 l 662 1218 l 503 1109 l 424 1109 l 616 1289 "},")":{"x_min":-24.421875,"x_max":454.640625,"ha":542,"o":"m -24 -216 l -11 -149 q 177 52 106 -78 q 295 419 248 183 q 320 786 341 656 q 209 989 300 917 l 222 1055 q 426 821 373 981 q 432 419 479 660 q 270 17 385 178 q -24 -216 155 -142 "},"Ã…":{"x_min":-132.921875,"x_max":906.03125,"ha":1003,"o":"m 646 1030 q 691 1103 682 1060 q 675 1176 699 1146 q 608 1207 651 1207 q 529 1177 564 1207 q 485 1103 494 1147 q 501 1030 477 1060 q 568 1000 524 1000 q 646 1030 611 1000 m 224 367 l 594 367 l 503 848 l 224 367 m -132 0 l -118 72 l -29 72 l 469 939 q 408 1005 425 964 q 402 1103 391 1046 q 482 1235 417 1180 q 624 1290 547 1290 q 745 1235 701 1290 q 774 1103 789 1180 q 729 1005 764 1048 q 640 939 694 962 l 806 72 l 906 72 l 891 0 l 523 0 l 537 72 l 650 72 l 609 294 l 183 294 l 54 72 l 166 72 l 151 0 l -132 0 "},"Ã¸":{"x_min":-22.15625,"x_max":853.71875,"ha":836,"o":"m 616 596 q 563 654 597 635 q 478 673 528 673 q 310 594 377 673 q 212 360 242 514 q 203 271 203 311 q 203 198 203 231 l 616 596 m 220 128 q 273 67 239 87 q 357 47 307 47 q 526 126 458 47 q 623 360 593 206 q 634 453 634 412 q 633 529 634 494 l 220 128 m 733 625 q 774 508 765 575 q 766 360 782 440 q 617 84 733 188 q 344 -20 502 -20 q 229 -2 280 -20 q 140 52 178 15 l 20 -64 l -22 -21 l 101 99 q 62 217 70 151 q 69 360 54 282 q 218 637 102 533 q 492 741 334 741 q 606 723 555 741 q 694 672 657 706 l 811 785 l 853 742 l 733 625 "},"Ã¢":{"x_min":47,"x_max":735.140625,"ha":828,"o":"m 504 112 q 268 -20 414 -20 q 89 60 149 -20 q 47 199 47 117 q 54 272 47 233 q 267 635 100 512 q 580 741 409 741 q 735 721 695 741 l 609 72 l 716 72 l 702 0 l 483 0 l 504 112 m 179 203 q 319 58 179 58 q 462 126 404 58 q 546 324 520 194 l 609 652 l 609 652 q 554 672 609 672 q 323 570 424 672 q 187 281 223 467 q 179 203 179 238 m 484 1111 l 598 1111 l 707 856 l 628 856 l 525 1032 l 353 856 l 275 856 l 484 1111 "},"}":{"x_min":48.828125,"x_max":716.828125,"ha":884,"o":"m 63 -156 l 110 -156 q 240 -126 205 -156 q 292 0 274 -96 l 330 194 q 394 346 351 300 q 528 414 436 391 q 420 481 444 435 q 416 634 395 527 l 454 829 q 449 955 473 925 q 331 985 426 985 l 284 985 l 298 1056 l 341 1056 q 556 1005 509 1056 q 574 805 603 955 l 540 630 q 549 489 520 528 q 674 450 578 450 l 716 450 l 703 379 l 661 379 q 520 339 564 379 q 456 198 476 300 l 422 23 q 326 -176 393 -126 q 91 -227 260 -227 l 48 -227 l 63 -156 "},"Ã„":{"x_min":-105.796875,"x_max":932.484375,"ha":1003,"o":"m 251 367 l 623 367 l 531 848 l 251 367 m -105 0 l -92 72 l -3 72 l 540 1013 l 654 1013 l 833 72 l 932 72 l 918 0 l 550 0 l 564 72 l 676 72 l 635 294 l 209 294 l 81 72 l 192 72 l 179 0 l -105 0 m 509 1278 q 560 1254 541 1278 q 573 1199 579 1230 q 539 1143 566 1165 q 478 1120 512 1120 q 426 1143 444 1120 q 415 1199 408 1165 q 448 1254 421 1230 q 509 1278 477 1278 m 773 1278 q 823 1254 805 1278 q 836 1199 842 1230 q 802 1143 830 1165 q 742 1120 775 1120 q 690 1143 708 1120 q 678 1199 672 1165 q 712 1254 684 1230 q 773 1278 741 1278 "},"Â¸":{"x_min":174.296875,"x_max":476.578125,"ha":694,"o":"m 417 0 q 466 -81 453 -43 q 474 -152 480 -119 q 415 -237 463 -207 q 290 -268 366 -268 q 233 -263 262 -268 q 174 -251 204 -259 l 191 -162 q 242 -180 217 -174 q 292 -186 268 -186 q 356 -168 330 -186 q 388 -119 382 -150 q 383 -70 392 -100 q 351 0 374 -40 l 417 0 "},"a":{"x_min":47,"x_max":735.140625,"ha":828,"o":"m 504 112 q 268 -20 414 -20 q 89 60 149 -20 q 47 199 47 117 q 54 272 47 233 q 267 635 100 512 q 580 741 409 741 q 735 721 695 741 l 609 72 l 716 72 l 702 0 l 483 0 l 504 112 m 179 203 q 319 58 179 58 q 462 126 404 58 q 546 324 520 194 l 609 652 l 609 652 q 554 672 609 672 q 323 570 424 672 q 187 281 223 467 q 179 203 179 238 "},"=":{"x_min":147,"x_max":1016,"ha":1163,"o":"m 147 629 l 1016 629 l 1016 520 l 147 520 l 147 629 m 147 352 l 1016 352 l 1016 243 l 147 243 l 147 352 "},"N":{"x_min":-27.8125,"x_max":1255.296875,"ha":1215,"o":"m -27 0 l -14 72 l 122 72 l 290 940 l 154 940 l 168 1013 l 428 1013 l 880 213 l 1021 940 l 885 940 l 899 1013 l 1255 1013 l 1241 940 l 1104 940 l 918 -19 l 836 -19 l 354 833 l 205 72 l 341 72 l 328 0 l -27 0 "},"Ãº":{"x_min":94.546875,"x_max":796.5625,"ha":894,"o":"m 671 721 l 796 721 l 670 72 l 788 72 l 774 0 l 532 0 l 556 127 q 445 17 507 55 q 310 -20 383 -20 q 147 48 190 -20 q 121 159 121 89 q 132 262 121 204 l 207 648 l 94 648 l 108 721 l 346 721 l 265 301 q 252 185 252 231 q 262 120 252 143 q 367 72 285 72 q 512 135 454 72 q 593 320 570 199 l 671 721 m 630 1111 l 765 1111 l 484 856 l 405 856 l 630 1111 "},"2":{"x_min":-5.421875,"x_max":785.015625,"ha":884,"o":"m 227 772 l 151 772 l 187 951 q 344 1010 267 990 q 493 1031 422 1031 q 727 954 651 1031 q 778 746 804 877 q 501 390 750 597 q 472 367 482 375 l 167 111 l 590 111 l 614 235 l 693 235 l 647 0 l -5 0 l 8 73 l 375 380 q 557 567 497 482 q 635 746 617 652 q 613 906 655 848 q 477 964 571 964 q 318 916 380 964 q 227 772 256 868 "},"Ã¼":{"x_min":94.546875,"x_max":796.5625,"ha":894,"o":"m 671 721 l 796 721 l 670 72 l 788 72 l 774 0 l 532 0 l 556 127 q 445 17 507 55 q 310 -20 383 -20 q 147 48 190 -20 q 121 159 121 89 q 132 262 121 204 l 207 648 l 94 648 l 108 721 l 346 721 l 265 301 q 252 185 252 231 q 262 120 252 143 q 367 72 285 72 q 512 135 454 72 q 593 320 570 199 l 671 721 m 410 1064 q 462 1040 443 1064 q 474 984 480 1017 q 441 927 467 949 q 379 905 414 905 q 327 927 345 905 q 316 984 309 949 q 351 1040 322 1017 q 410 1064 378 1064 m 675 1064 q 726 1040 707 1064 q 738 984 744 1017 q 705 927 731 949 q 643 905 677 905 q 591 927 609 905 q 580 984 573 949 q 614 1040 586 1017 q 675 1064 642 1064 "},"Â¯":{"x_min":249.5625,"x_max":674.09375,"ha":694,"o":"m 268 1035 l 674 1035 l 655 935 l 249 935 l 268 1035 "},"Z":{"x_min":-35.9375,"x_max":984.703125,"ha":965,"o":"m -35 0 l -26 48 l 775 930 l 251 930 l 222 778 l 139 778 l 184 1013 l 984 1013 l 975 964 l 173 83 l 745 83 l 773 224 l 855 224 l 812 0 l -35 0 "},"u":{"x_min":94.546875,"x_max":796.5625,"ha":894,"o":"m 671 721 l 796 721 l 670 72 l 788 72 l 774 0 l 532 0 l 556 127 q 445 17 507 55 q 310 -20 383 -20 q 147 48 190 -20 q 121 159 121 89 q 132 262 121 204 l 207 648 l 94 648 l 108 721 l 346 721 l 265 301 q 252 185 252 231 q 262 120 252 143 q 367 72 285 72 q 512 135 454 72 q 593 320 570 199 l 671 721 "},"Ã“":{"x_min":64.59375,"x_max":1075.171875,"ha":1139,"o":"m 481 53 q 754 167 647 53 q 905 505 861 281 q 886 843 948 729 q 657 958 823 958 q 383 843 491 958 q 233 505 276 729 q 252 167 189 281 q 481 53 314 53 m 467 -20 q 284 13 364 -20 q 151 113 204 47 q 72 286 90 189 q 77 505 54 382 q 157 724 101 627 q 303 897 212 821 q 475 997 383 963 q 672 1031 567 1031 q 999 886 892 1031 q 1061 505 1107 741 q 981 286 1037 383 q 834 113 925 188 q 663 13 755 47 q 467 -20 571 -20 m 780 1288 l 914 1288 l 701 1109 l 621 1109 l 780 1288 "},"k":{"x_min":57.640625,"x_max":762.265625,"ha":842,"o":"m 458 450 l 658 72 l 762 72 l 748 0 l 548 0 l 351 368 l 236 277 l 182 0 l 57 0 l 248 984 l 128 984 l 142 1056 l 387 1056 l 253 368 l 612 649 l 508 649 l 522 722 l 724 722 l 711 649 l 458 450 "},"Ã™":{"x_min":151.234375,"x_max":1208.5,"ha":1171,"o":"m 280 940 l 151 940 l 165 1013 l 561 1013 l 547 940 l 417 940 l 316 416 q 326 145 278 222 q 531 69 375 69 q 764 145 686 69 q 880 416 842 222 l 981 940 l 852 940 l 866 1013 l 1208 1013 l 1194 940 l 1065 940 l 960 402 q 808 75 916 171 q 488 -20 701 -20 q 203 76 275 -20 q 176 402 131 172 l 280 940 m 747 1288 l 836 1109 l 756 1109 l 614 1288 l 747 1288 "},"â±µ":{"x_min":-21.703125,"x_max":992.15625,"ha":1028,"o":"m 868 507 l 343 507 l 258 72 l 387 72 l 373 0 l -21 0 l -8 72 l 120 72 l 289 940 l 160 940 l 174 1013 l 570 1013 l 556 940 l 427 940 l 359 590 l 884 590 l 908 716 l 992 716 l 927 380 l 843 380 l 868 507 "},"Â¢":{"x_min":94.3125,"x_max":786.46875,"ha":884,"o":"m 487 672 q 338 583 397 661 q 251 360 279 505 q 252 136 223 214 q 366 48 280 58 l 487 672 m 720 216 q 601 52 676 111 q 420 -18 526 -5 l 385 -202 l 317 -202 l 353 -18 q 139 96 206 -5 q 104 363 73 199 q 242 630 136 528 q 500 733 349 733 l 535 920 l 603 920 l 568 739 q 683 718 629 733 q 786 676 736 702 l 750 492 l 680 492 q 649 619 680 575 q 555 672 619 663 l 433 48 q 544 99 496 56 q 620 216 591 142 l 720 216 "},"ÃŸ":{"x_min":-118.671875,"x_max":815.140625,"ha":928,"o":"m 696 820 q 668 945 706 901 q 548 989 629 989 q 409 945 459 989 q 341 807 359 901 l 175 -45 q 77 -227 151 -165 q -118 -289 2 -289 l -110 -222 q -4 -184 -39 -222 q 50 -45 31 -143 l 215 804 q 329 989 238 923 q 561 1056 419 1056 q 768 985 705 1056 q 810 771 830 914 l 795 771 q 633 734 697 771 q 557 634 569 697 q 563 573 550 599 q 619 515 576 547 l 673 478 q 794 353 764 410 q 808 218 823 295 q 696 46 788 113 q 480 -20 605 -20 q 367 -7 422 -20 q 264 28 313 5 l 295 187 l 368 187 q 389 82 358 118 q 488 47 419 47 q 615 88 564 47 q 680 199 666 129 q 672 296 691 256 q 582 385 652 335 l 531 422 q 447 509 469 467 q 436 609 425 554 q 521 748 453 692 q 696 820 589 803 "},"Ã©":{"x_min":59,"x_max":780.03125,"ha":821,"o":"m 203 278 q 201 228 201 251 q 224 122 201 164 q 370 47 263 47 q 488 71 449 47 q 573 169 557 113 l 664 169 q 536 22 637 82 q 326 -20 466 -20 q 111 83 187 -20 q 59 261 59 156 q 69 360 59 307 q 216 636 102 531 q 494 741 331 741 q 759 552 759 741 q 620 346 759 414 q 203 278 478 278 m 551 424 q 627 555 627 469 q 473 673 627 673 q 319 605 382 673 q 217 353 256 537 q 551 424 435 353 m 645 1111 l 780 1111 l 499 856 l 420 856 l 645 1111 "},"s":{"x_min":15.09375,"x_max":664.859375,"ha":712,"o":"m 47 208 l 119 208 q 117 170 117 188 q 284 47 117 47 q 476 170 452 47 q 479 204 479 182 q 455 251 479 225 q 336 309 432 276 l 251 340 q 136 408 164 370 q 108 491 108 446 q 111 529 108 508 q 214 684 131 628 q 418 741 297 741 q 664 682 538 741 l 634 525 l 562 525 q 565 554 565 540 q 530 638 565 603 q 417 673 496 673 q 236 562 258 673 q 234 530 234 550 q 255 485 234 509 q 363 433 277 461 l 456 402 q 588 322 552 370 q 614 255 614 288 q 500 39 614 113 q 273 -20 410 -20 q 15 39 136 -20 l 47 208 "},"B":{"x_min":-21.015625,"x_max":941.828125,"ha":1021,"o":"m 259 72 l 461 72 q 650 124 583 72 q 739 293 717 177 q 716 460 762 407 q 547 513 670 513 l 345 513 l 259 72 m 358 585 l 531 585 q 701 627 642 585 q 779 762 761 670 q 754 897 797 855 q 600 940 711 940 l 427 940 l 358 585 m -21 0 l -7 72 l 121 72 l 290 940 l 161 940 l 175 1013 l 675 1013 q 894 950 828 1013 q 935 762 959 887 q 853 618 918 672 q 682 553 789 565 q 862 470 809 536 q 895 293 916 404 q 757 71 866 142 q 446 0 648 0 l -21 0 "},"?":{"x_min":149.875,"x_max":733.5,"ha":745,"o":"m 172 6 q 159 70 151 32 q 198 134 166 108 q 267 161 229 161 q 326 134 305 161 q 340 70 347 108 q 301 6 333 32 q 232 -20 269 -20 q 172 6 193 -20 m 183 968 q 330 1015 262 999 q 455 1031 398 1031 q 678 958 605 1031 q 727 762 751 885 q 612 556 702 636 q 364 441 522 476 l 330 269 l 246 269 l 290 491 q 489 589 415 520 q 584 763 564 658 q 563 910 602 856 q 438 964 524 964 q 303 919 361 964 q 215 792 246 875 l 149 792 l 183 968 "},"H":{"x_min":-21.015625,"x_max":1233.59375,"ha":1211,"o":"m -21 0 l -7 72 l 121 72 l 290 940 l 161 940 l 175 1013 l 571 1013 l 556 940 l 427 940 l 360 590 l 885 590 l 952 940 l 823 940 l 838 1013 l 1233 1013 l 1219 940 l 1090 940 l 921 72 l 1050 72 l 1036 0 l 641 0 l 655 72 l 784 72 l 868 507 l 343 507 l 259 72 l 387 72 l 374 0 l -21 0 "},"Ã®":{"x_min":99.6875,"x_max":543.890625,"ha":444,"o":"m 238 72 l 356 72 l 342 0 l 99 0 l 225 649 l 106 649 l 120 722 l 364 722 l 238 72 m 320 1111 l 434 1111 l 543 856 l 465 856 l 362 1032 l 189 856 l 111 856 l 320 1111 "},"c":{"x_min":59,"x_max":751.828125,"ha":778,"o":"m 686 216 q 550 40 637 100 q 344 -20 463 -20 q 111 83 186 -20 q 59 261 59 156 q 69 360 59 307 q 218 637 103 533 q 491 741 334 741 q 625 725 560 741 q 751 676 690 709 l 716 492 l 644 492 q 644 509 644 501 q 608 630 644 591 q 480 673 569 673 q 312 595 379 673 q 215 360 245 516 q 201 233 201 289 q 220 125 201 168 q 358 47 256 47 q 495 89 439 47 q 586 216 551 131 l 686 216 "},"Â¶":{"x_min":156.109375,"x_max":905.359375,"ha":884,"o":"m 540 1014 l 905 1014 l 891 941 l 811 941 l 602 -133 l 530 -133 l 738 941 l 581 941 l 373 -133 l 301 -133 l 412 446 q 203 522 268 446 q 162 724 138 598 q 291 934 187 854 q 540 1014 394 1014 "},"Â¥":{"x_min":63.75,"x_max":986.0625,"ha":884,"o":"m 145 0 l 159 72 l 288 72 l 337 321 l 63 321 l 77 392 l 351 392 l 360 436 l 322 532 l 104 532 l 118 603 l 297 603 l 167 940 l 73 940 l 87 1013 l 462 1013 l 448 940 l 329 940 l 482 530 l 792 940 l 678 940 l 693 1013 l 986 1013 l 971 940 l 875 940 l 617 603 l 802 603 l 788 532 l 562 532 l 499 449 l 487 392 l 760 392 l 747 321 l 474 321 l 425 72 l 554 72 l 540 0 l 145 0 "},"(":{"x_min":87.890625,"x_max":566.265625,"ha":542,"o":"m 319 -216 q 115 17 168 -142 q 109 419 63 178 q 271 821 156 660 q 566 1055 387 981 l 553 989 q 364 786 435 917 q 247 419 293 656 q 221 52 201 183 q 332 -149 241 -78 l 319 -216 "},"â�£":{"x_min":36.625,"x_max":987.421875,"ha":1061,"o":"m 124 140 l 233 140 l 166 -206 l 811 -206 l 878 140 l 987 140 l 899 -316 l 36 -316 l 124 140 "},"U":{"x_min":151.234375,"x_max":1208.5,"ha":1171,"o":"m 280 940 l 151 940 l 165 1013 l 561 1013 l 547 940 l 417 940 l 316 416 q 326 145 278 222 q 531 69 375 69 q 764 145 686 69 q 880 416 842 222 l 981 940 l 852 940 l 866 1013 l 1208 1013 l 1194 940 l 1065 940 l 960 402 q 808 75 916 171 q 488 -20 701 -20 q 203 76 275 -20 q 176 402 131 172 l 280 940 "},"Ã‘":{"x_min":-27.8125,"x_max":1255.296875,"ha":1215,"o":"m -27 0 l -14 72 l 122 72 l 290 940 l 154 940 l 168 1013 l 428 1013 l 880 213 l 1021 940 l 885 940 l 899 1013 l 1255 1013 l 1241 940 l 1104 940 l 918 -19 l 836 -19 l 354 833 l 205 72 l 341 72 l 328 0 l -27 0 m 751 1163 l 722 1182 q 697 1196 710 1191 q 673 1201 684 1201 q 625 1181 646 1201 q 595 1131 604 1162 l 530 1131 q 587 1239 544 1199 q 686 1280 629 1280 q 731 1273 711 1280 q 784 1246 751 1267 l 814 1228 q 842 1214 828 1219 q 867 1210 855 1210 q 914 1228 895 1210 q 940 1280 934 1247 l 1006 1280 q 948 1169 991 1208 q 842 1131 906 1131 q 754 1161 797 1131 l 751 1163 "},"F":{"x_min":-21.015625,"x_max":1004.375,"ha":964,"o":"m -21 0 l -7 72 l 121 72 l 290 940 l 161 940 l 175 1013 l 1004 1013 l 960 787 l 877 787 l 904 929 l 425 929 l 360 590 l 705 590 l 730 716 l 813 716 l 748 380 l 665 380 l 689 507 l 343 507 l 259 72 l 421 72 l 407 0 l -21 0 "},"Â­":{"x_min":50.859375,"x_max":418.4375,"ha":469,"o":"m 71 426 l 418 426 l 398 320 l 50 320 l 71 426 "},":":{"x_min":94.265625,"x_max":369.546875,"ha":468,"o":"m 114 6 q 101 70 94 32 q 140 134 109 108 q 209 161 171 161 q 268 134 247 161 q 282 70 289 108 q 243 6 274 32 q 174 -20 212 -20 q 114 6 135 -20 m 201 448 q 187 512 179 474 q 225 576 194 550 q 295 603 257 603 q 354 577 333 603 q 367 512 375 551 q 329 447 360 473 q 260 422 299 422 q 201 448 222 422 "},"Ã›":{"x_min":151.234375,"x_max":1208.5,"ha":1171,"o":"m 280 940 l 151 940 l 165 1013 l 561 1013 l 547 940 l 417 940 l 316 416 q 326 145 278 222 q 531 69 375 69 q 764 145 686 69 q 880 416 842 222 l 981 940 l 852 940 l 866 1013 l 1208 1013 l 1194 940 l 1065 940 l 960 402 q 808 75 916 171 q 488 -20 701 -20 q 203 76 275 -20 q 176 402 131 172 l 280 940 m 721 1288 l 840 1288 l 962 1109 l 883 1109 l 767 1218 l 608 1109 l 529 1109 l 721 1288 "},"*":{"x_min":22.203125,"x_max":671.46875,"ha":694,"o":"m 671 839 l 406 715 l 671 590 l 619 510 l 388 657 l 388 399 l 305 399 l 305 657 l 73 510 l 22 590 l 287 714 l 22 839 l 73 919 l 305 772 l 305 1031 l 388 1031 l 388 772 l 619 919 l 671 839 "},"Â°":{"x_min":132,"x_max":562,"ha":694,"o":"m 347 938 q 260 902 295 938 q 225 814 225 866 q 259 728 225 763 q 347 694 294 694 q 433 728 398 694 q 469 814 469 763 q 433 901 469 865 q 347 938 397 938 m 346 1032 q 430 1015 390 1032 q 499 967 470 998 q 546 897 530 936 q 562 814 562 859 q 499 663 562 725 q 345 601 436 601 q 193 662 254 601 q 132 814 132 723 q 194 968 132 905 q 346 1032 256 1032 "},"V":{"x_min":70.53125,"x_max":1121.6875,"ha":1003,"o":"m 326 941 l 475 163 l 924 941 l 810 941 l 824 1014 l 1121 1014 l 1107 941 l 1009 941 l 465 0 l 348 0 l 171 941 l 70 941 l 84 1014 l 453 1014 l 439 941 l 326 941 "},"Ã¥":{"x_min":47,"x_max":735.140625,"ha":828,"o":"m 504 112 q 268 -20 414 -20 q 89 60 149 -20 q 47 199 47 117 q 54 272 47 233 q 267 635 100 512 q 580 741 409 741 q 735 721 695 741 l 609 72 l 716 72 l 702 0 l 483 0 l 504 112 m 179 203 q 319 58 179 58 q 462 126 404 58 q 546 324 520 194 l 609 652 l 609 652 q 554 672 609 672 q 323 570 424 672 q 187 281 223 467 q 179 203 179 238 m 672 1166 q 700 1034 715 1112 q 621 901 685 955 q 478 847 556 847 q 357 901 400 847 q 328 1033 314 955 q 408 1165 343 1111 q 550 1220 472 1220 q 672 1166 628 1220 m 617 1033 q 602 1106 625 1076 q 534 1137 577 1137 q 455 1107 490 1137 q 411 1033 420 1077 q 427 960 403 989 q 495 930 451 930 q 573 960 538 930 q 617 1033 609 990 "},"Â ":{"x_min":0,"x_max":0,"ha":441},"0":{"x_min":71.140625,"x_max":811.890625,"ha":884,"o":"m 219 161 q 352 47 248 47 q 529 161 456 47 q 648 505 603 275 q 663 849 693 735 q 530 964 634 964 q 352 849 426 964 q 234 505 279 735 q 219 161 189 275 m 339 -20 q 108 118 174 -20 q 91 505 43 256 q 259 892 139 754 q 543 1031 379 1031 q 774 892 709 1031 q 791 505 839 754 q 623 118 743 256 q 339 -20 504 -20 "},"Â¾":{"x_min":18.3125,"x_max":1199.6875,"ha":1346,"o":"m 991 206 l 1045 481 l 782 206 l 991 206 m 1146 0 l 852 0 l 863 57 l 962 57 l 980 150 l 710 150 l 721 207 l 1062 567 l 1158 567 l 1088 206 l 1199 206 l 1188 150 l 1077 150 l 1059 57 l 1157 57 l 1146 0 m 134 995 q 234 1022 187 1013 q 322 1031 282 1031 q 459 994 415 1031 q 489 890 502 957 q 437 807 480 841 q 328 762 395 773 q 440 711 406 751 q 460 603 473 670 q 377 484 444 525 q 200 443 310 443 q 105 452 151 443 q 18 480 60 461 l 40 596 l 87 596 q 109 519 81 545 q 200 493 137 493 q 304 522 263 493 q 355 608 344 552 q 339 703 367 671 q 242 736 311 736 l 206 736 l 216 786 l 234 786 q 338 811 300 786 q 387 886 377 836 q 373 956 396 932 q 299 981 350 981 q 209 959 243 981 q 162 894 175 937 l 115 894 l 134 995 m 1043 1031 l 1145 1031 l 301 -19 l 200 -19 l 1043 1031 "},"@":{"x_min":78.65625,"x_max":1316.484375,"ha":1389,"o":"m 838 167 q 732 85 788 112 q 614 58 677 58 q 438 142 495 58 q 407 363 381 227 q 524 584 434 500 q 733 669 614 669 q 840 642 796 669 q 914 559 885 615 l 933 656 l 1038 656 l 937 131 q 1137 241 1057 156 q 1243 454 1217 326 q 1247 596 1257 529 q 1203 720 1237 663 q 1054 859 1148 811 q 838 907 960 907 q 715 894 777 907 q 590 854 653 881 q 340 663 440 791 q 206 368 239 535 q 200 159 185 255 q 266 -5 215 64 q 417 -128 324 -86 q 627 -171 510 -171 q 796 -145 715 -171 q 952 -68 877 -119 l 979 -115 q 794 -210 893 -178 q 585 -242 695 -242 q 357 -196 461 -242 q 184 -68 252 -151 q 90 128 113 17 q 91 368 66 239 q 182 603 115 492 q 353 800 249 714 q 581 931 455 885 q 839 978 708 978 q 1093 921 984 978 q 1262 759 1201 865 q 1311 614 1300 692 q 1306 452 1323 536 q 1140 164 1271 270 q 817 59 1009 59 l 838 167 m 870 328 l 883 399 q 861 537 899 484 q 745 590 823 590 q 606 530 663 590 q 528 363 549 471 q 541 196 507 255 q 659 137 576 137 q 794 190 736 137 q 870 328 853 243 "},"Ã¶":{"x_min":59,"x_max":776.421875,"ha":836,"o":"m 356 47 q 523 126 457 47 q 620 360 590 206 q 634 486 634 431 q 615 594 634 551 q 478 673 579 673 q 311 594 378 673 q 214 360 244 515 q 201 235 201 290 q 221 126 201 170 q 356 47 257 47 m 343 -20 q 111 83 186 -20 q 59 261 59 156 q 69 360 59 307 q 218 637 102 533 q 491 741 333 741 q 724 637 649 741 q 776 460 776 565 q 766 360 776 413 q 617 84 733 188 q 343 -20 501 -20 m 432 1064 q 484 1040 465 1064 q 496 984 502 1017 q 463 927 489 949 q 401 905 436 905 q 349 927 367 905 q 338 984 331 949 q 372 1040 344 1017 q 432 1064 400 1064 m 697 1064 q 747 1040 728 1064 q 760 984 766 1017 q 726 927 753 949 q 665 905 699 905 q 613 927 631 905 q 602 984 595 949 q 636 1040 608 1017 q 697 1064 664 1064 "},"i":{"x_min":70.84375,"x_max":375,"ha":444,"o":"m 219 945 q 252 999 225 976 q 311 1023 279 1023 q 360 999 342 1023 q 375 960 375 982 q 372 945 375 953 q 340 891 366 913 q 281 869 313 869 q 231 891 249 869 q 218 930 218 908 q 219 945 218 937 m 209 72 l 326 72 l 313 0 l 70 0 l 196 649 l 76 649 l 91 722 l 335 722 l 209 72 "},"âž¡":{"x_min":79,"x_max":1112,"ha":1164,"o":"m 79 270 l 79 630 l 788 630 l 788 733 l 829 733 l 1112 453 l 1112 446 l 829 166 l 788 166 l 788 270 l 79 270 "},"Ã•":{"x_min":64.59375,"x_max":1075.171875,"ha":1139,"o":"m 481 53 q 754 167 647 53 q 905 505 861 281 q 886 843 948 729 q 657 958 823 958 q 383 843 491 958 q 233 505 276 729 q 252 167 189 281 q 481 53 314 53 m 467 -20 q 284 13 364 -20 q 151 113 204 47 q 72 286 90 189 q 77 505 54 382 q 157 724 101 627 q 303 897 212 821 q 475 997 383 963 q 672 1031 567 1031 q 999 886 892 1031 q 1061 505 1107 741 q 981 286 1037 383 q 834 113 925 188 q 663 13 755 47 q 467 -20 571 -20 m 711 1163 l 682 1182 q 657 1196 670 1191 q 633 1201 644 1201 q 585 1181 606 1201 q 555 1131 564 1162 l 490 1131 q 547 1239 504 1199 q 646 1280 589 1280 q 691 1273 671 1280 q 744 1246 711 1267 l 774 1228 q 802 1214 788 1219 q 827 1210 815 1210 q 874 1228 855 1210 q 900 1280 894 1247 l 966 1280 q 908 1169 951 1208 q 802 1131 866 1131 q 714 1161 757 1131 l 711 1163 "},"Ã¾":{"x_min":29.03125,"x_max":826,"ha":889,"o":"m 287 396 l 273 324 q 263 228 263 271 q 284 125 263 166 q 416 58 321 58 q 575 134 511 58 q 669 360 639 211 q 682 483 682 429 q 663 586 682 545 q 533 663 629 663 q 375 594 438 663 q 287 396 312 525 m 276 984 l 156 984 l 170 1056 l 415 1056 l 328 608 q 441 708 378 676 q 587 741 503 741 q 783 635 720 741 q 826 469 826 566 q 815 360 826 418 q 677 85 781 191 q 440 -20 572 -20 q 306 12 356 -20 q 231 112 255 44 l 153 -289 l 29 -289 l 276 984 "},"]":{"x_min":-12.203125,"x_max":543.21875,"ha":542,"o":"m 543 1056 l 303 -183 l -12 -183 l 1 -111 l 187 -111 l 400 984 l 214 984 l 227 1056 l 543 1056 "},"m":{"x_min":97.578125,"x_max":1220.453125,"ha":1317,"o":"m 758 581 q 875 700 811 660 q 1013 741 939 741 q 1168 670 1126 741 q 1194 560 1194 628 q 1183 458 1194 515 l 1107 72 l 1220 72 l 1206 0 l 969 0 l 1055 444 q 1066 535 1066 497 q 1053 602 1066 577 q 955 649 1030 649 q 816 585 871 649 q 736 401 760 522 l 658 0 l 533 0 l 621 449 q 630 537 630 500 q 618 602 630 579 q 519 649 594 649 q 380 585 435 649 q 300 401 324 522 l 222 0 l 97 0 l 223 650 l 104 650 l 117 721 l 362 721 l 337 593 q 447 702 385 664 q 576 741 508 741 q 709 699 661 741 q 758 581 758 657 "},"8":{"x_min":40.96875,"x_max":813.703125,"ha":884,"o":"m 602 276 q 581 444 623 384 q 441 505 539 505 q 278 444 343 505 q 191 276 212 384 q 212 107 170 167 q 352 47 254 47 q 515 107 450 47 q 602 276 581 167 m 670 768 q 651 912 688 860 q 530 964 614 964 q 389 912 446 964 q 314 768 332 860 q 333 623 297 675 q 454 572 370 572 q 595 623 538 572 q 670 768 652 675 m 552 538 q 715 453 664 523 q 745 276 766 384 q 612 56 718 133 q 339 -20 507 -20 q 96 56 171 -20 q 48 276 21 133 q 147 453 69 384 q 344 538 225 523 q 202 616 245 557 q 177 768 159 676 q 298 960 200 890 q 543 1031 396 1031 q 761 960 691 1031 q 807 768 831 890 q 723 616 790 676 q 552 538 657 557 "},"R":{"x_min":-21.015625,"x_max":994.875,"ha":1046,"o":"m 665 503 q 738 459 710 490 q 783 372 767 428 l 871 72 l 994 72 l 981 0 l 742 0 l 646 322 q 587 443 619 416 q 488 471 554 471 l 337 471 l 259 72 l 402 72 l 388 0 l -21 0 l -7 72 l 121 72 l 290 940 l 161 940 l 175 1013 l 689 1013 q 903 942 836 1013 q 945 742 970 871 q 854 578 925 638 q 665 503 783 517 m 351 544 l 551 544 q 711 592 653 544 q 789 742 769 640 q 770 892 809 844 q 627 940 730 940 l 427 940 l 351 544 "},"Ã¡":{"x_min":47,"x_max":755.484375,"ha":828,"o":"m 504 112 q 268 -20 414 -20 q 89 60 149 -20 q 47 199 47 117 q 54 272 47 233 q 267 635 100 512 q 580 741 409 741 q 735 721 695 741 l 609 72 l 716 72 l 702 0 l 483 0 l 504 112 m 179 203 q 319 58 179 58 q 462 126 404 58 q 546 324 520 194 l 609 652 l 609 652 q 554 672 609 672 q 323 570 424 672 q 187 281 223 467 q 179 203 179 238 m 620 1111 l 755 1111 l 474 856 l 395 856 l 620 1111 "},"Ã—":{"x_min":191.921875,"x_max":972.5,"ha":1164,"o":"m 972 749 l 658 434 l 972 122 l 894 46 l 581 358 l 269 46 l 191 122 l 503 434 l 191 749 l 269 825 l 581 513 l 894 825 l 972 749 "},"o":{"x_min":59,"x_max":776.421875,"ha":836,"o":"m 356 47 q 523 126 457 47 q 620 360 590 206 q 634 486 634 431 q 615 594 634 551 q 478 673 579 673 q 311 594 378 673 q 214 360 244 515 q 201 235 201 290 q 221 126 201 170 q 356 47 257 47 m 343 -20 q 111 83 186 -20 q 59 261 59 156 q 69 360 59 307 q 218 637 102 533 q 491 741 333 741 q 724 637 649 741 q 776 460 776 565 q 766 360 776 413 q 617 84 733 188 q 343 -20 501 -20 "},"5":{"x_min":31.203125,"x_max":798.890625,"ha":884,"o":"m 798 1013 l 777 902 l 313 902 l 257 611 q 346 647 297 635 q 454 660 396 660 q 695 569 618 660 q 742 320 773 478 q 597 69 711 159 q 310 -20 484 -20 q 170 -3 240 -20 q 31 48 101 13 l 69 245 l 145 245 q 178 97 132 148 q 323 47 223 47 q 502 117 430 47 q 599 320 573 188 q 581 522 624 452 q 429 592 537 592 q 318 571 368 592 q 222 504 267 549 l 164 504 l 263 1013 l 798 1013 "},"Ãµ":{"x_min":59,"x_max":802.875,"ha":836,"o":"m 356 47 q 523 126 457 47 q 620 360 590 206 q 634 486 634 431 q 615 594 634 551 q 478 673 579 673 q 311 594 378 673 q 214 360 244 515 q 201 235 201 290 q 221 126 201 170 q 356 47 257 47 m 343 -20 q 111 83 186 -20 q 59 261 59 156 q 69 360 59 307 q 218 637 102 533 q 491 741 333 741 q 724 637 649 741 q 776 460 776 565 q 766 360 776 413 q 617 84 733 188 q 343 -20 501 -20 m 547 929 l 516 966 q 491 987 501 982 q 468 993 481 993 q 418 965 440 993 q 383 888 396 939 l 318 888 q 381 1029 337 979 q 487 1079 425 1079 q 533 1069 513 1079 q 574 1037 553 1060 l 605 1000 q 628 979 617 984 q 653 974 638 974 q 703 1001 682 974 q 737 1079 725 1028 l 802 1079 q 739 937 783 987 q 634 888 695 888 q 587 897 608 888 q 547 929 568 907 "},"7":{"x_min":168.859375,"x_max":881.625,"ha":884,"o":"m 868 943 l 288 0 l 187 0 l 740 902 l 272 902 l 248 777 l 168 777 l 214 1013 l 881 1013 l 868 943 "},"K":{"x_min":-21.015625,"x_max":1104.734375,"ha":1038,"o":"m -21 0 l -7 72 l 121 72 l 290 940 l 161 940 l 175 1013 l 571 1013 l 556 940 l 427 940 l 353 557 l 863 940 l 754 940 l 768 1013 l 1104 1013 l 1090 940 l 976 940 l 467 558 l 859 72 l 974 72 l 960 0 l 725 0 l 339 481 l 259 72 l 387 72 l 374 0 l -21 0 "},",":{"x_min":27.125,"x_max":340.4375,"ha":441,"o":"m 27 -135 q 142 -24 100 -88 q 202 128 184 38 l 206 154 l 340 154 q 247 -45 312 37 q 71 -189 181 -128 l 27 -135 "},"d":{"x_min":27,"x_max":833.78125,"ha":889,"o":"m 833 1056 l 628 0 l 504 0 l 525 112 q 412 12 475 44 q 266 -20 350 -20 q 69 85 133 -20 q 27 252 27 155 q 38 360 27 303 q 176 635 71 530 q 414 741 280 741 q 548 708 498 741 q 622 608 598 676 l 694 984 l 576 984 l 591 1056 l 833 1056 m 567 324 l 580 396 q 591 491 591 449 q 569 594 591 553 q 438 663 533 663 q 277 586 341 663 q 184 360 213 510 q 171 239 171 292 q 190 134 171 176 q 320 58 223 58 q 478 126 415 58 q 567 324 541 194 "},"Â¨":{"x_min":266.046875,"x_max":691.21875,"ha":694,"o":"m 362 1065 q 413 1041 394 1065 q 425 985 432 1018 q 392 928 419 950 q 330 906 365 906 q 279 928 297 906 q 267 985 261 950 q 302 1041 273 1018 q 362 1065 330 1065 m 626 1065 q 677 1041 658 1065 q 689 985 695 1018 q 656 928 682 950 q 595 906 629 906 q 543 928 560 906 q 531 985 524 950 q 566 1041 537 1018 q 626 1065 594 1065 "},"Ã”":{"x_min":64.59375,"x_max":1075.171875,"ha":1139,"o":"m 481 53 q 754 167 647 53 q 905 505 861 281 q 886 843 948 729 q 657 958 823 958 q 383 843 491 958 q 233 505 276 729 q 252 167 189 281 q 481 53 314 53 m 467 -20 q 284 13 364 -20 q 151 113 204 47 q 72 286 90 189 q 77 505 54 382 q 157 724 101 627 q 303 897 212 821 q 475 997 383 963 q 672 1031 567 1031 q 999 886 892 1031 q 1061 505 1107 741 q 981 286 1037 383 q 834 113 925 188 q 663 13 755 47 q 467 -20 571 -20 m 678 1288 l 797 1288 l 918 1109 l 840 1109 l 724 1218 l 564 1109 l 486 1109 l 678 1288 "},"E":{"x_min":-21.015625,"x_max":990.8125,"ha":1014,"o":"m -21 0 l -7 72 l 121 72 l 290 940 l 161 940 l 175 1013 l 990 1013 l 947 787 l 863 787 l 891 929 l 425 929 l 360 590 l 691 590 l 716 716 l 799 716 l 734 380 l 651 380 l 675 507 l 343 507 l 261 83 l 737 83 l 764 225 l 848 225 l 804 0 l -21 0 "},"Y":{"x_min":68.5,"x_max":1027.421875,"ha":917,"o":"m 164 0 l 177 72 l 307 72 l 378 436 l 163 940 l 68 940 l 82 1013 l 459 1013 l 444 940 l 326 940 l 500 530 l 832 940 l 718 940 l 733 1013 l 1027 1013 l 1013 940 l 917 940 l 518 449 l 444 72 l 573 72 l 560 0 l 164 0 "},"\"":{"x_min":136,"x_max":502,"ha":638,"o":"m 244 1014 l 244 637 l 136 637 l 136 1014 l 244 1014 m 502 1014 l 502 637 l 394 637 l 394 1014 l 502 1014 "},"Ãª":{"x_min":59,"x_max":759,"ha":821,"o":"m 203 278 q 201 228 201 251 q 224 122 201 164 q 370 47 263 47 q 488 71 449 47 q 573 169 557 113 l 664 169 q 536 22 637 82 q 326 -20 466 -20 q 111 83 187 -20 q 59 261 59 156 q 69 360 59 307 q 216 636 102 531 q 494 741 331 741 q 759 552 759 741 q 620 346 759 414 q 203 278 478 278 m 551 424 q 627 555 627 469 q 473 673 627 673 q 319 605 382 673 q 217 353 256 537 q 551 424 435 353 m 509 1111 l 622 1111 l 731 856 l 653 856 l 550 1032 l 378 856 l 299 856 l 509 1111 "},"Ã�":{"x_min":-21.015625,"x_max":624.71875,"ha":549,"o":"m 259 72 l 387 72 l 374 0 l -21 0 l -7 72 l 121 72 l 290 940 l 161 940 l 175 1013 l 571 1013 l 556 940 l 427 940 l 259 72 m 295 1278 q 346 1254 328 1278 q 359 1199 365 1230 q 325 1143 352 1165 q 264 1120 298 1120 q 212 1143 231 1120 q 201 1199 194 1165 q 235 1254 207 1230 q 295 1278 263 1278 m 560 1278 q 610 1254 592 1278 q 623 1199 629 1230 q 589 1143 616 1165 q 528 1120 562 1120 q 476 1143 495 1120 q 465 1199 458 1165 q 499 1254 471 1230 q 560 1278 527 1278 "},"Ã‚":{"x_min":-105.796875,"x_max":932.484375,"ha":1003,"o":"m 251 367 l 623 367 l 531 848 l 251 367 m -105 0 l -92 72 l -3 72 l 540 1013 l 654 1013 l 833 72 l 932 72 l 918 0 l 550 0 l 564 72 l 676 72 l 635 294 l 209 294 l 81 72 l 192 72 l 179 0 l -105 0 m 578 1288 l 697 1288 l 819 1109 l 740 1109 l 624 1218 l 465 1109 l 386 1109 l 578 1288 "},"Ã�":{"x_min":-21.015625,"x_max":621.203125,"ha":549,"o":"m 259 72 l 387 72 l 374 0 l -21 0 l -7 72 l 121 72 l 290 940 l 161 940 l 175 1013 l 571 1013 l 556 940 l 427 940 l 259 72 m 487 1288 l 621 1288 l 408 1109 l 328 1109 l 487 1288 "},"Â´":{"x_min":356.71875,"x_max":716.828125,"ha":694,"o":"m 581 1111 l 716 1111 l 436 856 l 356 856 l 581 1111 "},"Ã¬":{"x_min":99.6875,"x_max":383.84375,"ha":444,"o":"m 238 72 l 356 72 l 342 0 l 99 0 l 225 649 l 106 649 l 120 722 l 364 722 l 238 72 m 257 1110 l 383 855 l 304 855 l 124 1110 l 257 1110 "},"Â±":{"x_min":147,"x_max":1016,"ha":1163,"o":"m 636 871 l 636 606 l 1016 606 l 1016 496 l 636 496 l 636 230 l 527 230 l 527 496 l 147 496 l 147 606 l 527 606 l 527 871 l 636 871 m 147 109 l 1016 109 l 1016 0 l 147 0 l 147 109 "},"Ãš":{"x_min":151.234375,"x_max":1208.5,"ha":1171,"o":"m 280 940 l 151 940 l 165 1013 l 561 1013 l 547 940 l 417 940 l 316 416 q 326 145 278 222 q 531 69 375 69 q 764 145 686 69 q 880 416 842 222 l 981 940 l 852 940 l 866 1013 l 1208 1013 l 1194 940 l 1065 940 l 960 402 q 808 75 916 171 q 488 -20 701 -20 q 203 76 275 -20 q 176 402 131 172 l 280 940 m 823 1288 l 957 1288 l 744 1109 l 665 1109 l 823 1288 "},"|":{"x_min":179,"x_max":289,"ha":468,"o":"m 289 1062 l 289 -328 l 179 -328 l 179 1062 l 289 1062 "},"â±¬":{"x_min":-14.203125,"x_max":738.359375,"ha":732,"o":"m 552 661 q 697 721 626 661 l 738 721 l 727 662 l 234 148 q 260 140 240 146 q 306 117 283 132 l 339 97 q 449 59 403 59 q 643 160 538 59 l 625 77 q 617 24 617 47 q 627 -33 617 -3 q 638 -99 638 -62 q 618 -167 638 -135 q 531 -231 599 -199 q 390 -282 462 -262 l 344 -193 q 474 -140 420 -172 q 529 -77 529 -107 q 529 0 529 -29 q 422 -35 471 -35 q 293 12 368 -35 q 170 59 218 59 q 26 0 97 59 l -14 0 l -3 58 l 490 571 q 463 580 482 574 q 417 602 440 587 l 383 623 q 274 662 320 662 q 80 559 185 662 l 97 642 q 301 756 213 756 q 430 708 354 756 q 552 661 505 661 "},"Â§":{"x_min":2.71875,"x_max":668,"ha":694,"o":"m 292 635 q 216 576 240 604 q 185 512 192 548 q 387 284 168 422 l 406 272 q 477 330 451 298 q 511 402 503 363 q 483 498 521 453 q 292 635 444 544 m 668 993 l 641 857 l 579 857 q 557 933 587 905 q 467 962 527 962 q 354 929 400 962 q 298 839 309 896 q 434 681 285 774 q 457 666 449 670 q 607 541 575 592 q 626 423 640 490 q 570 315 614 358 q 443 243 526 273 q 506 168 490 211 q 510 64 522 125 q 414 -78 493 -24 q 217 -132 334 -132 q 103 -122 155 -132 q 2 -93 51 -113 l 30 47 l 92 47 q 114 -34 83 -7 q 218 -62 145 -62 q 336 -28 288 -62 q 395 61 383 4 q 271 224 410 137 q 252 236 259 232 q 89 370 122 319 q 69 488 56 421 q 130 597 82 552 q 257 663 179 642 q 190 739 208 696 q 182 835 171 782 q 277 978 199 924 q 468 1032 356 1032 q 571 1022 521 1032 q 668 993 620 1012 "},"Ã�":{"x_min":68.5,"x_max":1027.421875,"ha":917,"o":"m 164 0 l 177 72 l 307 72 l 378 436 l 163 940 l 68 940 l 82 1013 l 459 1013 l 444 940 l 326 940 l 500 530 l 832 940 l 718 940 l 733 1013 l 1027 1013 l 1013 940 l 917 940 l 518 449 l 444 72 l 573 72 l 560 0 l 164 0 m 669 1288 l 802 1288 l 590 1109 l 510 1109 l 669 1288 "},"b":{"x_min":59.984375,"x_max":801,"ha":890,"o":"m 250 984 l 130 984 l 144 1056 l 389 1056 l 302 608 q 415 708 352 676 q 562 741 478 741 q 758 635 695 741 q 801 469 801 566 q 789 360 801 418 q 651 85 756 191 q 414 -20 547 -20 q 280 12 330 -20 q 206 112 229 44 l 184 0 l 59 0 l 250 984 m 247 324 q 237 228 237 271 q 258 125 237 166 q 390 58 295 58 q 550 134 486 58 q 643 360 614 211 q 657 483 657 429 q 638 586 657 545 q 507 663 604 663 q 349 594 412 663 q 261 396 286 525 l 247 324 "},"q":{"x_min":125,"x_max":825.34375,"ha":889,"o":"m 582 112 q 478 11 535 44 q 344 -20 420 -20 q 163 60 224 -20 q 125 182 125 111 q 134 272 125 223 q 346 636 181 512 q 653 741 487 741 q 825 721 784 741 l 642 -217 l 762 -217 l 748 -289 l 503 -289 l 582 112 m 632 672 q 401 570 502 672 q 264 281 301 467 q 257 185 257 226 q 274 114 257 142 q 394 58 307 58 q 539 126 480 58 q 622 324 597 194 l 687 652 q 632 672 687 672 "},"â±ª":{"x_min":58.0625,"x_max":790.828125,"ha":842,"o":"m 307 331 l 236 276 l 182 0 l 58 0 l 249 984 l 129 984 l 142 1056 l 387 1056 l 254 367 l 612 648 l 509 648 l 522 721 l 725 721 l 711 648 l 372 382 l 397 375 q 511 337 478 352 q 582 235 572 301 l 603 111 q 655 63 611 63 q 731 160 699 63 l 790 148 q 772 84 784 113 q 762 27 762 51 q 772 -33 762 -3 q 782 -89 782 -62 q 763 -167 782 -135 q 675 -231 744 -199 q 535 -281 607 -262 l 489 -193 q 620 -140 565 -172 q 675 -77 683 -102 q 658 -17 665 -46 q 630 -20 644 -20 q 504 26 542 -20 q 473 122 484 56 l 459 213 q 381 312 447 291 l 307 331 "},"Ã–":{"x_min":64.59375,"x_max":1075.171875,"ha":1139,"o":"m 481 53 q 754 167 647 53 q 905 505 861 281 q 886 843 948 729 q 657 958 823 958 q 383 843 491 958 q 233 505 276 729 q 252 167 189 281 q 481 53 314 53 m 467 -20 q 284 13 364 -20 q 151 113 204 47 q 72 286 90 189 q 77 505 54 382 q 157 724 101 627 q 303 897 212 821 q 475 997 383 963 q 672 1031 567 1031 q 999 886 892 1031 q 1061 505 1107 741 q 981 286 1037 383 q 834 113 925 188 q 663 13 755 47 q 467 -20 571 -20 m 613 1278 q 663 1254 645 1278 q 676 1199 682 1230 q 642 1143 670 1165 q 581 1120 615 1120 q 530 1143 548 1120 q 518 1199 512 1165 q 552 1254 524 1230 q 613 1278 581 1278 m 877 1278 q 927 1254 909 1278 q 940 1199 946 1230 q 906 1143 933 1165 q 846 1120 879 1120 q 794 1143 812 1120 q 782 1199 775 1165 q 816 1254 788 1230 q 877 1278 845 1278 "},"z":{"x_min":-13.5625,"x_max":738.53125,"ha":732,"o":"m 553 661 q 697 721 626 661 l 738 721 l 727 662 l 234 148 q 261 140 241 146 q 307 117 284 132 l 340 97 q 450 59 404 59 q 643 160 539 59 l 627 78 q 423 -35 511 -35 q 294 12 369 -35 q 171 59 219 59 q 27 0 98 59 l -13 0 l -2 58 l 491 571 q 463 580 483 574 q 417 603 440 588 l 384 623 q 274 662 320 662 q 81 560 185 662 l 97 642 q 301 756 213 756 q 430 708 355 756 q 553 661 505 661 "},"â±¶":{"x_min":-22.375,"x_max":737.171875,"ha":772,"o":"m 629 434 l 653 559 l 737 559 l 672 223 l 588 223 l 613 350 l 282 350 l 228 72 l 341 72 l 327 0 l -22 0 l -8 72 l 103 72 l 216 649 l 103 649 l 117 721 l 467 721 l 453 649 l 341 649 l 299 434 l 629 434 "},"Ã£":{"x_min":47,"x_max":771.078125,"ha":828,"o":"m 504 112 q 268 -20 414 -20 q 89 60 149 -20 q 47 199 47 117 q 54 272 47 233 q 267 635 100 512 q 580 741 409 741 q 735 721 695 741 l 609 72 l 716 72 l 702 0 l 483 0 l 504 112 m 179 203 q 319 58 179 58 q 462 126 404 58 q 546 324 520 194 l 609 652 l 609 652 q 554 672 609 672 q 323 570 424 672 q 187 281 223 467 q 179 203 179 238 m 515 929 l 484 966 q 460 987 470 982 q 436 993 449 993 q 386 965 408 993 q 352 888 365 939 l 287 888 q 350 1029 306 979 q 455 1079 394 1079 q 502 1069 481 1079 q 542 1037 521 1060 l 573 1000 q 596 979 585 984 q 621 974 606 974 q 672 1001 650 974 q 705 1079 693 1028 l 771 1079 q 708 937 752 987 q 602 888 663 888 q 556 897 576 888 q 515 929 536 907 "},"â§«":{"x_min":4.0625,"x_max":682.234375,"ha":686,"o":"m 343 1121 l 682 401 l 343 -323 l 4 401 l 343 1121 "},"Ã¦":{"x_min":47,"x_max":1243,"ha":1305,"o":"m 1035 424 q 1111 555 1111 470 q 957 673 1111 673 q 803 605 866 673 q 701 353 740 537 q 1035 424 916 353 m 810 -20 q 577 113 649 -20 q 278 -20 479 -20 q 268 -20 273 -20 q 89 60 149 -20 q 47 199 47 117 q 54 272 47 233 q 267 635 100 512 q 581 741 409 741 q 735 721 696 741 l 722 655 q 978 741 830 741 q 1243 551 1243 741 q 687 279 1243 279 q 684 229 684 252 q 707 122 684 164 q 854 47 747 47 q 972 70 933 47 q 1057 169 1041 113 l 1148 169 q 1020 22 1121 82 q 810 -20 950 -20 m 187 281 q 179 201 179 237 q 319 58 179 58 q 462 126 404 58 q 546 324 520 194 l 609 652 q 554 672 609 672 q 323 570 424 672 q 187 281 223 467 "},"Â®":{"x_min":192,"x_max":1197,"ha":1389,"o":"m 607 537 l 691 537 q 775 562 747 537 q 804 639 804 588 q 775 715 804 689 q 691 741 747 741 l 607 741 l 607 537 m 773 511 q 821 485 801 502 q 855 440 841 467 l 934 285 l 986 285 l 986 239 l 856 239 l 768 411 q 723 475 744 459 q 669 491 702 491 l 607 491 l 607 285 l 664 285 l 664 239 l 449 239 l 449 285 l 505 285 l 505 741 l 449 741 l 449 786 l 730 786 q 860 748 816 786 q 905 636 905 710 q 872 549 905 580 q 773 511 839 518 m 694 938 q 528 906 605 938 q 388 810 452 874 q 293 669 325 747 q 261 502 261 591 q 293 337 261 414 q 388 197 325 261 q 528 101 452 133 q 694 69 605 69 q 861 101 784 69 q 1001 197 938 133 q 1096 337 1064 260 q 1128 502 1128 413 q 1096 670 1128 593 q 1001 810 1064 747 q 861 906 938 874 q 694 938 784 938 m 502 970 q 694 1008 591 1008 q 886 970 797 1008 q 1049 859 975 933 q 1160 696 1123 785 q 1197 502 1197 607 q 1160 311 1197 399 q 1049 148 1123 222 q 886 37 975 74 q 694 0 797 0 q 502 37 591 0 q 339 148 413 74 q 228 311 265 222 q 192 502 192 399 q 228 696 192 607 q 339 859 265 785 q 502 970 413 933 "},"Ã‰":{"x_min":-21.015625,"x_max":990.8125,"ha":1014,"o":"m -21 0 l -7 72 l 121 72 l 290 940 l 161 940 l 175 1013 l 990 1013 l 947 787 l 863 787 l 891 929 l 425 929 l 360 590 l 691 590 l 716 716 l 799 716 l 734 380 l 651 380 l 675 507 l 343 507 l 261 83 l 737 83 l 764 225 l 848 225 l 804 0 l -21 0 m 718 1289 l 852 1289 l 639 1109 l 560 1109 l 718 1289 "},"~":{"x_min":147,"x_max":1016,"ha":1163,"o":"m 1016 546 l 1016 446 q 887 358 948 386 q 763 330 826 330 q 580 374 698 330 l 573 377 q 551 386 565 380 q 386 425 451 425 q 265 400 324 425 q 147 323 207 375 l 147 426 q 275 512 214 485 q 399 540 336 540 q 582 495 464 540 l 589 492 q 610 484 597 489 q 774 445 708 445 q 896 470 837 445 q 1016 546 956 495 "},"Â³":{"x_min":18.3125,"x_max":492.578125,"ha":557,"o":"m 134 995 q 234 1022 187 1013 q 322 1031 282 1031 q 459 994 415 1031 q 489 890 502 957 q 437 807 480 841 q 328 762 395 773 q 440 711 406 751 q 460 603 473 670 q 377 484 444 525 q 200 443 310 443 q 105 452 151 443 q 18 480 60 461 l 40 596 l 87 596 q 109 519 81 545 q 200 493 137 493 q 304 522 263 493 q 355 608 344 552 q 339 703 367 671 q 242 736 311 736 l 206 736 l 216 786 l 234 786 q 338 811 300 786 q 387 886 377 836 q 373 956 396 932 q 299 981 350 981 q 209 959 243 981 q 162 894 175 937 l 115 894 l 134 995 "},"Â¡":{"x_min":91.546875,"x_max":454.265625,"ha":558,"o":"m 285 878 q 271 942 264 904 q 310 1006 279 980 q 379 1033 341 1033 q 438 1006 417 1033 q 452 942 459 980 q 413 878 444 904 q 344 852 381 852 q 285 878 305 852 m 91 0 l 245 557 l 278 729 l 362 729 l 328 557 l 266 0 l 91 0 "},"[":{"x_min":0,"x_max":555.421875,"ha":542,"o":"m 240 1056 l 555 1056 l 541 984 l 356 984 l 143 -111 l 328 -111 l 315 -183 l 0 -183 l 240 1056 "},"â±§":{"x_min":-0.828125,"x_max":1253.78125,"ha":1211,"o":"m 0 0 l 13 72 l 142 72 l 311 940 l 182 940 l 195 1013 l 591 1013 l 577 940 l 448 940 l 380 590 l 905 590 l 973 940 l 844 940 l 858 1013 l 1253 1013 l 1240 940 l 1111 940 l 942 72 l 1071 72 l 1015 -218 l 952 -218 q 952 -107 952 -215 q 893 0 952 0 l 661 0 l 675 72 l 804 72 l 888 507 l 364 507 l 279 72 l 408 72 l 394 0 l 0 0 "},"L":{"x_min":-21.015625,"x_max":840.25,"ha":922,"o":"m -21 0 l -7 72 l 121 72 l 290 940 l 161 940 l 175 1013 l 571 1013 l 556 940 l 427 940 l 261 83 l 724 83 l 756 253 l 840 253 l 791 0 l -21 0 "}," ":{"x_min":0,"x_max":0,"ha":441},"%":{"x_min":116.90625,"x_max":1202.921875,"ha":1320,"o":"m 400 968 q 296 911 341 968 q 232 754 252 855 q 236 597 213 654 q 318 540 259 540 q 420 596 375 540 q 484 754 464 653 q 481 911 503 854 q 400 968 458 968 m 1003 471 q 899 413 944 471 q 834 255 854 356 q 838 98 815 155 q 919 42 861 42 q 1022 98 977 42 q 1085 255 1066 155 q 1083 413 1105 356 q 1003 471 1060 471 m 1014 532 q 1170 457 1121 532 q 1194 255 1219 382 q 1091 54 1169 128 q 907 -20 1013 -20 q 750 54 798 -20 q 726 255 701 128 q 829 457 751 383 q 1014 532 906 532 m 1027 1031 l 1130 1031 l 292 -20 l 189 -20 l 1027 1031 m 227 956 q 412 1031 305 1031 q 568 956 519 1031 q 593 755 617 882 q 490 553 568 627 q 305 479 413 479 q 148 553 197 479 q 125 755 100 627 q 227 956 149 881 "},"P":{"x_min":-21.015625,"x_max":935.078125,"ha":935,"o":"m 345 516 l 524 516 q 689 570 625 516 q 772 728 752 625 q 750 885 792 831 q 606 940 708 940 l 427 940 l 345 516 m -21 0 l -7 72 l 121 72 l 290 940 l 161 940 l 175 1013 l 654 1013 q 880 935 806 1013 q 928 728 954 858 q 799 520 903 597 q 543 443 695 443 l 331 443 l 259 72 l 415 72 l 402 0 l -21 0 "},"Ã€":{"x_min":-105.796875,"x_max":932.484375,"ha":1003,"o":"m 251 367 l 623 367 l 531 848 l 251 367 m -105 0 l -92 72 l -3 72 l 540 1013 l 654 1013 l 833 72 l 932 72 l 918 0 l 550 0 l 564 72 l 676 72 l 635 294 l 209 294 l 81 72 l 192 72 l 179 0 l -105 0 m 587 1288 l 676 1109 l 597 1109 l 455 1288 l 587 1288 "},"_":{"x_min":0,"x_max":694,"ha":694,"o":"m 694 -274 l 694 -328 l 0 -328 l 0 -274 l 694 -274 "},"Ã±":{"x_min":97.4375,"x_max":797.421875,"ha":894,"o":"m 97 0 l 223 649 l 104 649 l 117 722 l 361 722 l 337 593 q 448 703 386 666 q 584 741 511 741 q 747 672 703 741 q 773 562 773 631 q 761 458 773 516 l 686 72 l 797 72 l 783 0 l 547 0 l 628 419 q 642 536 642 489 q 631 601 642 577 q 526 650 608 650 q 381 586 439 650 q 300 401 323 523 l 222 0 l 97 0 m 535 929 l 504 966 q 479 988 490 983 q 456 994 469 994 q 406 965 428 994 q 372 888 384 939 l 306 888 q 370 1030 325 980 q 475 1080 414 1080 q 521 1070 501 1080 q 562 1038 541 1061 l 593 1001 q 616 979 606 985 q 641 974 627 974 q 692 1001 670 974 q 726 1080 713 1029 l 791 1080 q 728 937 772 987 q 622 888 684 888 q 576 897 596 888 q 535 929 556 907 "},"+":{"x_min":147,"x_max":1016,"ha":1163,"o":"m 636 871 l 636 491 l 1016 491 l 1016 381 l 636 381 l 636 0 l 527 0 l 527 381 l 147 381 l 147 491 l 527 491 l 527 871 l 636 871 "},"Â½":{"x_min":64.421875,"x_max":1192.453125,"ha":1346,"o":"m 64 453 l 75 510 l 191 510 l 275 940 l 125 868 l 137 932 l 317 1019 l 386 1019 l 287 510 l 404 510 l 394 453 l 64 453 m 1043 1031 l 1145 1031 l 301 -20 l 200 -20 l 1043 1031 m 842 426 l 794 426 l 815 533 q 914 566 864 555 q 1011 578 964 578 q 1153 533 1104 578 q 1189 417 1203 488 q 1018 217 1173 335 l 1003 205 l 813 60 l 1074 60 l 1089 133 l 1139 133 l 1113 0 l 705 0 l 715 51 l 941 223 q 1043 316 1010 275 q 1085 403 1076 358 q 1070 494 1096 460 q 986 528 1043 528 q 897 502 933 528 q 842 426 860 476 "},"Ã†":{"x_min":-121.390625,"x_max":1405.84375,"ha":1390,"o":"m 262 367 l 594 367 l 705 940 l 637 940 l 262 367 m 394 0 l 407 72 l 536 72 l 579 294 l 214 294 l 68 72 l 179 72 l 166 0 l -121 0 l -107 72 l -18 72 l 550 940 l 404 940 l 418 1013 l 1405 1013 l 1362 787 l 1279 787 l 1306 929 l 839 929 l 773 590 l 1107 590 l 1131 716 l 1215 716 l 1150 380 l 1066 380 l 1091 507 l 757 507 l 675 83 l 1153 83 l 1180 225 l 1264 225 l 1220 0 l 394 0 "},"Ã‹":{"x_min":-21.015625,"x_max":990.8125,"ha":1014,"o":"m -21 0 l -7 72 l 121 72 l 290 940 l 161 940 l 175 1013 l 990 1013 l 947 787 l 863 787 l 891 929 l 425 929 l 360 590 l 691 590 l 716 716 l 799 716 l 734 380 l 651 380 l 675 507 l 343 507 l 261 83 l 737 83 l 764 225 l 848 225 l 804 0 l -21 0 m 551 1278 q 602 1254 583 1278 q 615 1199 621 1230 q 581 1143 608 1165 q 520 1120 554 1120 q 468 1143 486 1120 q 457 1199 450 1165 q 491 1254 463 1230 q 551 1278 519 1278 m 815 1278 q 866 1254 847 1278 q 878 1199 885 1230 q 845 1143 872 1165 q 784 1120 817 1120 q 732 1143 750 1120 q 720 1199 714 1165 q 754 1254 727 1230 q 815 1278 783 1278 "},"'":{"x_min":136,"x_max":244,"ha":382,"o":"m 244 1014 l 244 637 l 136 637 l 136 1014 l 244 1014 "},"Âª":{"x_min":48.625,"x_max":599.359375,"ha":660,"o":"m 415 513 l 438 634 q 354 551 397 582 q 260 513 309 522 q 218 509 237 509 q 120 554 155 509 q 90 657 90 593 q 96 725 90 689 q 191 919 119 838 q 357 1017 263 999 q 394 1021 377 1021 q 443 1012 421 1021 q 502 956 479 997 l 512 1014 l 598 1014 l 512 573 l 599 573 l 587 513 l 415 513 m 464 767 l 475 825 q 480 865 480 847 q 458 931 480 906 q 395 959 436 959 q 367 956 382 959 q 255 888 301 944 q 192 744 209 832 q 186 681 186 709 q 202 612 186 638 q 267 580 223 580 q 295 582 280 580 q 403 645 357 594 q 464 767 450 697 m 62 434 l 535 434 l 522 363 l 48 363 l 62 434 "},"Ã°":{"x_min":27.078125,"x_max":798.703125,"ha":836,"o":"m 578 629 q 522 638 549 635 q 467 642 494 642 q 280 569 350 642 q 180 344 210 496 q 191 124 153 202 q 326 47 229 47 q 491 124 423 47 q 586 347 559 202 q 600 494 600 423 q 578 629 600 566 m 587 886 q 726 640 688 773 q 735 360 764 507 q 586 84 702 188 q 313 -20 471 -20 q 81 82 157 -20 q 36 350 4 185 q 182 607 67 509 q 452 706 297 706 q 500 706 475 706 q 559 698 525 706 q 534 770 551 734 q 490 844 516 807 l 252 743 l 237 796 l 453 887 q 371 954 419 927 q 262 997 323 982 l 286 1055 q 428 1005 363 1037 q 546 927 492 974 l 784 1029 l 798 976 l 587 886 "},"T":{"x_min":65.78125,"x_max":1011.15625,"ha":926,"o":"m 166 0 l 180 72 l 309 72 l 477 932 l 179 932 l 149 773 l 65 773 l 111 1013 l 1011 1013 l 965 773 l 881 773 l 912 932 l 614 932 l 446 72 l 576 72 l 562 0 l 166 0 "},"Ãž":{"x_min":-21.015625,"x_max":892.34375,"ha":939,"o":"m 302 294 l 481 294 q 646 348 582 294 q 729 507 710 403 q 707 665 750 610 q 564 720 665 720 l 385 720 l 302 294 m -21 0 l -7 72 l 121 72 l 290 940 l 161 940 l 175 1013 l 598 1013 l 584 940 l 427 940 l 399 792 l 611 792 q 837 714 763 792 q 885 507 911 637 q 756 298 860 375 q 500 221 651 221 l 288 221 l 259 72 l 415 72 l 402 0 l -21 0 "},"j":{"x_min":-253.5625,"x_max":410,"ha":431,"o":"m 254 944 q 287 998 259 975 q 346 1022 314 1022 q 396 998 377 1022 q 410 959 410 981 q 408 944 410 952 q 375 890 401 912 q 316 868 349 868 q 265 890 284 868 q 252 929 252 907 q 254 944 252 936 m 226 648 l 109 648 l 122 721 l 365 721 l 212 -70 q 112 -245 190 -182 q -82 -309 33 -309 q -173 -297 -131 -309 q -253 -264 -215 -286 l -224 -116 l -159 -116 q -162 -147 -162 -132 q -145 -211 -162 -189 q -66 -241 -122 -241 q 32 -200 -4 -241 q 87 -70 69 -158 l 226 648 "},"â±·":{"x_min":45,"x_max":925,"ha":973,"o":"m 353 0 q 182 19 219 0 q 99 88 139 41 q 47 205 64 132 q 45 236 45 218 q 58 346 45 276 q 150 589 88 501 q 331 721 205 667 l 407 721 l 399 681 q 268 580 327 649 q 199 357 235 542 q 187 238 187 291 q 197 155 187 191 q 367 71 219 84 l 423 357 q 498 589 453 509 q 732 724 576 724 l 736 724 q 911 589 868 724 q 925 490 925 548 q 909 346 925 427 q 864 205 889 246 q 767 88 819 132 q 657 19 704 38 q 478 0 613 0 l 353 0 m 492 71 q 695 155 648 87 q 771 357 746 228 q 793 534 793 466 q 790 580 793 560 q 719 657 778 657 q 616 580 668 657 q 548 357 582 529 q 492 71 511 165 "},"1":{"x_min":96.984375,"x_max":610.359375,"ha":884,"o":"m 96 0 l 111 72 l 287 72 l 450 914 l 221 782 l 238 871 l 516 1031 l 610 1031 l 423 72 l 600 72 l 585 0 l 96 0 "},"Ã¤":{"x_min":47,"x_max":735.140625,"ha":828,"o":"m 504 112 q 268 -20 414 -20 q 89 60 149 -20 q 47 199 47 117 q 54 272 47 233 q 267 635 100 512 q 580 741 409 741 q 735 721 695 741 l 609 72 l 716 72 l 702 0 l 483 0 l 504 112 m 179 203 q 319 58 179 58 q 462 126 404 58 q 546 324 520 194 l 609 652 l 609 652 q 554 672 609 672 q 323 570 424 672 q 187 281 223 467 q 179 203 179 238 m 401 1064 q 452 1040 433 1064 q 464 984 471 1017 q 431 927 458 949 q 370 905 404 905 q 318 927 336 905 q 306 984 300 949 q 341 1040 313 1017 q 401 1064 369 1064 m 665 1064 q 716 1040 697 1064 q 728 984 734 1017 q 695 927 721 949 q 634 905 668 905 q 581 927 599 905 q 570 984 563 949 q 604 1040 576 1017 q 665 1064 632 1064 "},"<":{"x_min":147,"x_max":1016,"ha":1163,"o":"m 1016 692 l 312 434 l 1016 179 l 1016 63 l 147 379 l 147 491 l 1016 807 l 1016 692 "},"Â£":{"x_min":-6.78125,"x_max":841.609375,"ha":884,"o":"m 809 831 l 737 831 q 712 929 743 895 q 615 964 680 964 q 477 911 528 964 q 404 747 426 858 l 366 548 l 645 548 l 631 475 l 351 475 l 276 82 l 600 82 l 630 236 l 708 236 l 662 0 l -6 0 l 7 72 l 138 72 l 216 475 l 85 475 l 99 548 l 230 548 l 269 747 q 388 958 296 886 q 630 1031 480 1031 q 740 1022 687 1031 q 841 997 794 1014 l 809 831 "},"Â¹":{"x_min":64.421875,"x_max":404.859375,"ha":557,"o":"m 64 453 l 75 510 l 191 510 l 275 940 l 125 868 l 137 932 l 317 1019 l 386 1019 l 287 510 l 404 510 l 394 453 l 64 453 "},"t":{"x_min":75.796875,"x_max":559.90625,"ha":558,"o":"m 185 648 l 75 648 l 90 721 l 199 721 l 243 944 l 368 944 l 325 721 l 559 721 l 545 648 l 311 648 l 222 190 q 212 105 212 136 q 216 72 212 83 q 277 47 229 47 q 354 75 325 47 q 395 169 382 104 l 490 169 q 408 25 465 70 q 253 -20 351 -20 q 109 28 145 -20 q 88 111 88 57 q 96 190 88 145 l 185 648 "},"Â¬":{"x_min":147.09375,"x_max":1017,"ha":1164,"o":"m 147 585 l 1017 585 l 1017 194 l 908 194 l 908 475 l 147 475 l 147 585 "},"Ã¹":{"x_min":94.546875,"x_max":796.5625,"ha":894,"o":"m 671 721 l 796 721 l 670 72 l 788 72 l 774 0 l 532 0 l 556 127 q 445 17 507 55 q 310 -20 383 -20 q 147 48 190 -20 q 121 159 121 89 q 132 262 121 204 l 207 648 l 94 648 l 108 721 l 346 721 l 265 301 q 252 185 252 231 q 262 120 252 143 q 367 72 285 72 q 512 135 454 72 q 593 320 570 199 l 671 721 m 431 1110 l 557 855 l 477 855 l 297 1110 l 431 1110 "},"W":{"x_min":90.875,"x_max":1521.8125,"ha":1428,"o":"m 960 0 l 849 0 l 777 823 l 385 0 l 273 0 l 191 940 l 90 940 l 105 1013 l 474 1013 l 460 940 l 334 940 l 400 192 l 790 1013 l 899 1013 l 973 183 l 1332 940 l 1215 940 l 1230 1013 l 1521 1013 l 1507 940 l 1407 940 l 960 0 "},"Ã¯":{"x_min":99.6875,"x_max":566.4375,"ha":444,"o":"m 238 72 l 356 72 l 342 0 l 99 0 l 225 649 l 106 649 l 120 722 l 364 722 l 238 72 m 237 1065 q 288 1041 269 1065 q 301 985 307 1018 q 267 928 294 950 q 206 906 240 906 q 154 928 172 906 q 143 985 136 950 q 177 1041 149 1018 q 237 1065 205 1065 m 501 1065 q 552 1041 533 1065 q 564 985 571 1018 q 531 928 558 950 q 470 906 504 906 q 418 928 436 906 q 406 985 400 950 q 441 1041 413 1018 q 501 1065 469 1065 "},">":{"x_min":147,"x_max":1016,"ha":1163,"o":"m 147 692 l 147 807 l 1016 491 l 1016 379 l 147 63 l 147 179 l 850 434 l 147 692 "},"v":{"x_min":52.21875,"x_max":769.71875,"ha":785,"o":"m 364 0 l 273 0 l 134 649 l 52 649 l 65 722 l 252 722 l 374 152 q 504 306 452 220 q 651 649 613 486 l 568 649 l 583 722 l 769 722 q 602 285 695 442 q 364 0 520 149 "},"Ã»":{"x_min":94.546875,"x_max":796.5625,"ha":894,"o":"m 671 721 l 796 721 l 670 72 l 788 72 l 774 0 l 532 0 l 556 127 q 445 17 507 55 q 310 -20 383 -20 q 147 48 190 -20 q 121 159 121 89 q 132 262 121 204 l 207 648 l 94 648 l 108 721 l 346 721 l 265 301 q 252 185 252 231 q 262 120 252 143 q 367 72 285 72 q 512 135 454 72 q 593 320 570 199 l 671 721 m 494 1111 l 608 1111 l 717 856 l 638 856 l 535 1032 l 363 856 l 284 856 l 494 1111 "},"Ã’":{"x_min":64.59375,"x_max":1075.171875,"ha":1139,"o":"m 481 53 q 754 167 647 53 q 905 505 861 281 q 886 843 948 729 q 657 958 823 958 q 383 843 491 958 q 233 505 276 729 q 252 167 189 281 q 481 53 314 53 m 467 -20 q 284 13 364 -20 q 151 113 204 47 q 72 286 90 189 q 77 505 54 382 q 157 724 101 627 q 303 897 212 821 q 475 997 383 963 q 672 1031 567 1031 q 999 886 892 1031 q 1061 505 1107 741 q 981 286 1037 383 q 834 113 925 188 q 663 13 755 47 q 467 -20 571 -20 m 703 1288 l 792 1109 l 713 1109 l 571 1288 l 703 1288 "},"&":{"x_min":54,"x_max":1159.484375,"ha":1236,"o":"m 682 156 l 367 572 q 257 457 298 519 q 202 327 215 396 q 197 271 197 298 q 243 137 197 194 q 423 62 306 62 q 558 86 492 62 q 682 156 625 110 m 1072 0 l 800 0 l 726 98 q 556 9 643 38 q 376 -20 470 -20 q 117 69 201 -20 q 54 237 54 136 q 62 312 54 272 q 146 480 79 402 q 331 627 213 559 q 297 710 305 669 q 293 751 293 730 q 297 796 293 773 q 408 967 318 904 q 632 1031 498 1031 q 736 1019 677 1031 q 867 984 794 1007 l 833 810 l 757 810 q 758 826 758 818 q 726 920 758 886 q 615 958 690 958 q 494 919 545 958 q 431 820 443 881 q 429 791 429 806 q 439 737 429 764 q 512 620 453 698 l 790 251 q 887 368 848 305 q 946 502 926 430 l 960 575 l 1159 575 l 1145 502 l 1028 502 q 951 337 1000 413 q 833 195 903 260 l 926 72 l 1086 72 l 1072 0 "},"Ã�":{"x_min":-14.234375,"x_max":1054.078125,"ha":1121,"o":"m 264 72 l 391 72 q 717 184 589 72 q 886 507 845 297 q 842 828 927 717 q 560 940 758 940 l 433 940 l 362 573 l 590 573 l 573 488 l 345 488 l 264 72 m -14 0 l 0 72 l 128 72 l 209 488 l 73 488 l 90 573 l 225 573 l 297 940 l 168 940 l 182 1013 l 585 1013 q 967 879 847 1013 q 1040 507 1087 745 q 822 134 994 268 q 388 0 649 0 l -14 0 "},"I":{"x_min":-21.015625,"x_max":571.015625,"ha":549,"o":"m 259 72 l 387 72 l 374 0 l -21 0 l -7 72 l 121 72 l 290 940 l 161 940 l 175 1013 l 571 1013 l 556 940 l 427 940 l 259 72 "},"G":{"x_min":64.265625,"x_max":1051.0625,"ha":1109,"o":"m 929 710 q 865 897 929 836 q 668 958 802 958 q 385 845 493 958 q 233 505 277 732 q 256 167 189 282 q 494 53 322 53 q 645 71 571 53 q 789 128 718 90 l 840 390 l 649 390 l 663 463 l 992 463 l 918 84 q 708 6 817 32 q 480 -20 599 -20 q 141 123 251 -20 q 77 505 31 267 q 290 888 124 745 q 690 1031 457 1031 q 866 1010 777 1031 q 1051 949 954 990 l 1004 710 l 929 710 "},"`":{"x_min":248.890625,"x_max":508.625,"ha":694,"o":"m 382 1110 l 508 855 l 429 855 l 248 1110 l 382 1110 "},"Â·":{"x_min":126.90625,"x_max":311.859375,"ha":441,"o":"m 128 482 q 167 546 136 520 q 237 573 198 573 q 296 546 274 573 q 309 482 317 519 q 270 418 302 444 q 202 392 239 392 q 142 417 163 392 q 128 482 121 443 "},"r":{"x_min":97.34375,"x_max":732.109375,"ha":664,"o":"m 732 722 l 696 542 l 624 542 q 627 567 627 556 q 610 622 627 602 q 538 649 589 649 q 384 585 446 649 q 300 401 323 521 l 222 0 l 97 0 l 223 650 l 104 650 l 117 721 l 361 721 l 337 593 q 453 704 388 668 q 600 741 517 741 q 663 736 631 741 q 732 722 696 731 "},"Â¿":{"x_min":38.265625,"x_max":621.875,"ha":745,"o":"m 599 1006 q 612 942 619 980 q 573 878 604 904 q 504 852 542 852 q 445 878 467 852 q 432 942 424 904 q 470 1006 438 980 q 539 1033 502 1033 q 599 1006 578 1033 m 587 45 q 441 -2 509 13 q 316 -18 374 -18 q 93 54 166 -18 q 44 250 20 127 q 159 457 69 377 q 408 571 250 537 l 442 744 l 525 744 l 482 521 q 282 423 356 492 q 187 249 207 355 q 208 102 168 156 q 333 49 248 49 q 468 93 410 49 q 556 222 526 138 l 621 222 l 587 45 "},"Ã½":{"x_min":-51.53125,"x_max":798.90625,"ha":785,"o":"m 798 715 q 613 121 731 326 q 301 -268 440 -178 q 77 -309 240 -309 q 13 -303 45 -309 q -51 -287 -18 -298 l -24 -150 l 39 -150 q 38 -171 38 -160 q 50 -215 38 -199 q 111 -239 67 -239 q 334 -135 230 -239 l 164 648 l 82 648 l 96 721 l 282 721 l 442 5 q 578 235 552 168 q 680 642 663 446 l 598 642 l 613 715 l 798 715 m 628 1111 l 762 1111 l 482 856 l 402 856 l 628 1111 "},"x":{"x_min":4.0625,"x_max":762.9375,"ha":783,"o":"m 88 0 l 4 0 l 322 346 l 162 649 l 73 649 l 86 722 l 269 722 l 419 440 l 678 722 l 762 722 l 450 382 l 615 72 l 710 72 l 696 0 l 507 0 l 354 287 l 88 0 "},"Ã¨":{"x_min":59,"x_max":759,"ha":821,"o":"m 203 278 q 201 228 201 251 q 224 122 201 164 q 370 47 263 47 q 488 71 449 47 q 573 169 557 113 l 664 169 q 536 22 637 82 q 326 -20 466 -20 q 111 83 187 -20 q 59 261 59 156 q 69 360 59 307 q 216 636 102 531 q 494 741 331 741 q 759 552 759 741 q 620 346 759 414 q 203 278 478 278 m 551 424 q 627 555 627 469 q 473 673 627 673 q 319 605 382 673 q 217 353 256 537 q 551 424 435 353 m 446 1110 l 572 855 l 492 855 l 312 1110 l 446 1110 "},"Âº":{"x_min":27.8125,"x_max":608.625,"ha":653,"o":"m 297 552 q 416 605 369 552 q 483 765 463 659 q 478 925 504 871 q 381 980 452 980 q 262 925 310 980 q 195 765 214 870 q 200 606 174 660 q 297 552 226 552 m 288 500 q 111 573 169 500 q 77 765 53 646 q 186 958 100 885 q 391 1032 272 1032 q 567 958 509 1032 q 601 765 625 885 q 493 572 578 645 q 288 500 407 500 m 41 434 l 507 434 l 494 363 l 27 363 l 41 434 "},"Ã˜":{"x_min":-28.828125,"x_max":1165.109375,"ha":1139,"o":"m 889 840 q 799 928 856 899 q 657 958 742 958 q 382 843 490 958 q 231 505 275 729 q 216 359 216 424 q 226 238 216 293 l 889 840 m 249 173 q 339 83 281 113 q 482 53 397 53 q 756 167 649 53 q 908 505 864 281 q 923 651 923 584 q 912 773 923 718 l 249 173 m 1013 865 q 1070 702 1058 791 q 1062 504 1083 613 q 852 125 1016 270 q 467 -20 687 -20 q 297 9 372 -20 q 165 97 222 38 l 15 -39 l -28 7 l 125 148 q 68 308 80 219 q 78 505 57 396 q 288 885 123 740 q 671 1031 452 1031 q 843 1002 767 1031 q 973 916 919 973 l 1120 1051 l 1165 1003 l 1013 865 "},"Ã·":{"x_min":147,"x_max":1016,"ha":1163,"o":"m 492 686 q 518 750 492 724 q 582 777 544 777 q 645 750 619 777 q 672 686 672 723 q 645 622 672 648 q 582 596 619 596 q 517 621 543 596 q 492 686 492 647 m 517 120 q 492 184 492 146 q 518 248 492 222 q 582 275 544 275 q 645 248 619 275 q 672 184 672 222 q 645 120 672 146 q 582 94 619 94 q 517 120 543 94 m 147 490 l 1016 490 l 1016 380 l 147 380 l 147 490 "},"h":{"x_min":67.4375,"x_max":767.421875,"ha":895,"o":"m 67 0 l 258 984 l 139 984 l 152 1056 l 397 1056 l 307 593 q 418 703 356 666 q 554 741 481 741 q 716 672 673 741 q 743 562 743 631 q 731 458 743 516 l 656 72 l 767 72 l 753 0 l 517 0 l 598 419 q 612 536 612 489 q 601 600 612 577 q 496 649 578 649 q 351 585 409 649 q 270 401 293 522 l 192 0 l 67 0 "},".":{"x_min":123.421875,"x_max":313.203125,"ha":441,"o":"m 144 6 q 130 70 123 32 q 169 134 138 108 q 238 161 200 161 q 297 134 276 161 q 311 70 318 108 q 272 6 303 32 q 203 -20 240 -20 q 144 6 164 -20 "},";":{"x_min":-15.59375,"x_max":389.578125,"ha":468,"o":"m -15 -135 q 99 -24 56 -88 q 159 128 141 38 l 164 154 l 297 154 q 204 -45 269 37 q 27 -189 139 -128 l -15 -135 m 221 449 q 207 513 200 475 q 246 577 214 551 q 315 604 277 604 q 374 577 353 604 q 387 513 394 550 q 349 449 380 475 q 280 423 318 423 q 221 449 242 423 "},"f":{"x_min":-85.796875,"x_max":719.1875,"ha":514,"o":"m 692 886 l 626 886 q 629 912 629 900 q 612 962 629 943 q 536 989 589 989 q 430 950 466 989 q 375 814 394 912 l 357 722 l 558 722 l 544 649 l 342 649 l 208 -44 q 110 -227 184 -165 q -85 -289 35 -289 l -77 -222 q 28 -184 -6 -222 q 83 -44 64 -143 l 218 649 l 98 649 l 112 722 l 232 722 l 249 812 q 348 994 273 933 q 544 1056 422 1056 q 633 1047 589 1056 q 719 1022 677 1039 l 692 886 "},"A":{"x_min":-105.796875,"x_max":932.484375,"ha":1003,"o":"m 251 367 l 623 367 l 531 848 l 251 367 m -105 0 l -92 72 l -3 72 l 540 1013 l 654 1013 l 833 72 l 932 72 l 918 0 l 550 0 l 564 72 l 676 72 l 635 294 l 209 294 l 81 72 l 192 72 l 179 0 l -105 0 "},"6":{"x_min":67.96875,"x_max":837.46875,"ha":884,"o":"m 232 119 q 365 47 269 47 q 526 117 461 47 q 616 319 591 187 q 604 520 642 450 q 471 591 566 591 q 310 523 374 591 q 221 327 246 455 q 232 119 194 192 m 243 557 q 362 633 299 607 q 499 658 425 658 q 720 567 650 658 q 760 319 790 476 q 617 72 730 165 q 346 -20 504 -20 q 107 107 174 -20 q 86 473 40 235 q 275 885 138 739 q 612 1031 413 1031 q 722 1020 665 1031 q 837 990 779 1010 l 804 823 l 731 823 q 693 927 731 891 q 582 964 656 964 q 368 864 451 964 q 243 557 285 764 "},"O":{"x_min":64.59375,"x_max":1075.171875,"ha":1139,"o":"m 481 53 q 754 167 647 53 q 905 505 861 281 q 886 843 948 729 q 657 958 823 958 q 383 843 491 958 q 233 505 276 729 q 252 167 189 281 q 481 53 314 53 m 467 -20 q 284 13 364 -20 q 151 113 204 47 q 72 286 90 189 q 77 505 54 382 q 157 724 101 627 q 303 897 212 821 q 475 997 383 963 q 672 1031 567 1031 q 999 886 892 1031 q 1061 505 1107 741 q 981 286 1037 383 q 834 113 925 188 q 663 13 755 47 q 467 -20 571 -20 "},"n":{"x_min":97.4375,"x_max":797.421875,"ha":894,"o":"m 97 0 l 223 649 l 104 649 l 117 722 l 361 722 l 337 593 q 448 703 386 666 q 584 741 511 741 q 747 672 703 741 q 773 562 773 631 q 761 458 773 516 l 686 72 l 797 72 l 783 0 l 547 0 l 628 419 q 642 536 642 489 q 631 601 642 577 q 526 650 608 650 q 381 586 439 650 q 300 401 323 523 l 222 0 l 97 0 "},"3":{"x_min":16.953125,"x_max":799.515625,"ha":884,"o":"m 225 970 q 386 1015 310 999 q 526 1031 462 1031 q 745 967 674 1031 q 794 788 816 902 q 706 635 776 697 q 527 552 637 574 q 703 462 648 534 q 735 273 758 389 q 597 55 708 131 q 308 -20 487 -20 q 156 -3 229 -20 q 16 48 84 13 l 54 245 l 130 245 q 168 97 118 147 q 324 47 217 47 q 500 107 428 47 q 592 271 571 167 q 565 452 615 391 q 396 514 515 514 l 331 514 l 345 583 l 379 583 q 566 632 497 583 q 655 780 635 681 q 632 916 672 869 q 501 964 592 964 q 350 920 409 964 q 266 792 291 877 l 190 792 l 225 970 "},"9":{"x_min":46.515625,"x_max":815.40625,"ha":884,"o":"m 639 453 q 520 377 584 402 q 382 352 456 352 q 162 443 232 352 q 123 691 93 534 q 266 938 153 845 q 537 1031 379 1031 q 775 903 709 1031 q 796 537 842 775 q 607 125 745 271 q 271 -20 469 -20 q 161 -9 218 -20 q 46 20 104 0 l 79 189 l 153 189 q 189 83 153 120 q 300 47 226 47 q 514 146 431 47 q 639 453 598 245 m 518 964 q 357 893 421 964 q 266 691 292 823 q 278 489 241 560 q 412 419 316 419 q 573 487 508 419 q 662 683 637 555 q 651 891 689 818 q 518 964 613 964 "},"l":{"x_min":57.640625,"x_max":387.234375,"ha":444,"o":"m 195 72 l 314 72 l 300 0 l 57 0 l 248 984 l 128 984 l 142 1056 l 387 1056 l 195 72 "},"Â¤":{"x_min":70.59375,"x_max":816.765625,"ha":884,"o":"m 611 668 l 753 808 l 816 745 l 675 603 q 718 521 704 562 q 732 435 732 479 q 718 348 732 388 q 673 269 704 308 l 814 129 l 748 65 l 609 204 q 530 160 570 174 q 443 146 490 146 q 357 159 399 146 q 273 201 314 173 l 135 62 l 70 126 l 209 266 q 167 350 181 308 q 154 435 154 391 q 168 522 154 482 q 212 602 182 563 l 71 742 l 136 806 l 276 665 q 355 709 314 695 q 443 724 396 724 q 529 710 488 724 q 611 668 570 696 m 626 436 q 573 564 626 512 q 443 617 520 617 q 314 564 367 617 q 261 436 261 512 q 313 305 261 358 q 443 253 366 253 q 572 306 519 253 q 626 436 626 359 "},"4":{"x_min":-4.0625,"x_max":781.25,"ha":884,"o":"m 452 344 l 556 882 l 106 344 l 452 344 m 683 0 l 222 0 l 236 72 l 399 72 l 438 271 l -4 271 l 10 345 l 587 1032 l 721 1032 l 587 344 l 781 344 l 767 271 l 573 271 l 535 72 l 697 72 l 683 0 "},"p":{"x_min":60.03125,"x_max":857,"ha":890,"o":"m 318 396 l 304 324 q 294 228 294 271 q 315 125 294 166 q 447 58 352 58 q 606 134 542 58 q 700 360 670 211 q 713 483 713 429 q 694 586 713 545 q 564 663 660 663 q 406 594 469 663 q 318 396 343 525 m 242 648 l 122 648 l 136 721 l 381 721 l 359 607 q 472 708 409 676 q 618 741 535 741 q 814 635 751 741 q 857 469 857 566 q 846 360 857 418 q 708 85 812 191 q 471 -20 604 -20 q 337 12 387 -20 q 263 112 286 44 l 184 -289 l 60 -289 l 242 648 "},"Ã ":{"x_min":47,"x_max":735.140625,"ha":828,"o":"m 504 112 q 268 -20 414 -20 q 89 60 149 -20 q 47 199 47 117 q 54 272 47 233 q 267 635 100 512 q 580 741 409 741 q 735 721 695 741 l 609 72 l 716 72 l 702 0 l 483 0 l 504 112 m 179 203 q 319 58 179 58 q 462 126 404 58 q 546 324 520 194 l 609 652 l 609 652 q 554 672 609 672 q 323 570 424 672 q 187 281 223 467 q 179 203 179 238 m 421 1109 l 547 855 l 468 855 l 288 1109 l 421 1109 "},"Ãœ":{"x_min":151.234375,"x_max":1208.5,"ha":1171,"o":"m 280 940 l 151 940 l 165 1013 l 561 1013 l 547 940 l 417 940 l 316 416 q 326 145 278 222 q 531 69 375 69 q 764 145 686 69 q 880 416 842 222 l 981 940 l 852 940 l 866 1013 l 1208 1013 l 1194 940 l 1065 940 l 960 402 q 808 75 916 171 q 488 -20 701 -20 q 203 76 275 -20 q 176 402 131 172 l 280 940 m 656 1278 q 707 1254 689 1278 q 720 1199 726 1230 q 686 1143 713 1165 q 625 1120 659 1120 q 573 1143 592 1120 q 562 1199 555 1165 q 596 1254 568 1230 q 656 1278 624 1278 m 920 1278 q 971 1254 952 1278 q 984 1199 990 1230 q 950 1143 977 1165 q 889 1120 922 1120 q 837 1143 855 1120 q 826 1199 819 1165 q 859 1254 832 1230 q 920 1278 888 1278 "},"Ã³":{"x_min":59,"x_max":787.28125,"ha":836,"o":"m 356 47 q 523 126 457 47 q 620 360 590 206 q 634 486 634 431 q 615 594 634 551 q 478 673 579 673 q 311 594 378 673 q 214 360 244 515 q 201 235 201 290 q 221 126 201 170 q 356 47 257 47 m 343 -20 q 111 83 186 -20 q 59 261 59 156 q 69 360 59 307 q 218 637 102 533 q 491 741 333 741 q 724 637 649 741 q 776 460 776 565 q 766 360 776 413 q 617 84 733 188 q 343 -20 501 -20 m 652 1111 l 787 1111 l 506 856 l 427 856 l 652 1111 "}}}
